<svg width="84" height="84" viewBox="0 0 84 84" fill="none" xmlns="http://www.w3.org/2000/svg">
<path d="M13.3996 60.6H51.8996C53.5996 60.8 53.7996 62.9 52.0996 63.1H13.5996C11.9996 62.9 11.7996 60.9 13.3996 60.6Z" fill="url(#paint0_linear_830_17245)"/>
<path d="M13.2998 35.8H52.0998C54.0998 36.2 53.3998 38.4 51.5998 38.3H13.7998C12.0998 38.1 11.6998 36.4 13.2998 35.8Z" fill="url(#paint1_linear_830_17245)"/>
<path d="M12.6999 54.5C11.8999 53.8 12.3999 52.5 13.3999 52.4H52.0999C54.0999 52.8 53.3999 55 51.5999 54.9H14.0999C13.6999 54.8 12.9999 54.7 12.6999 54.5Z" fill="url(#paint2_linear_830_17245)"/>
<path d="M13.0998 19.2H44.8999C46.5999 19.4 46.5998 21.5 44.6998 21.7H13.5998C11.9998 21.6 11.5998 19.8 13.0998 19.2Z" fill="url(#paint3_linear_830_17245)"/>
<path d="M13.2996 27.4H44.6995C46.5995 27.6 46.5996 29.7 44.8996 29.9H13.3996C11.7996 29.7 11.6996 27.7 13.2996 27.4Z" fill="url(#paint4_linear_830_17245)"/>
<path d="M20.5 44H51.5999C53.3999 44 54.0999 46.2 52.0999 46.5L20 46.4C18.9 45.7 19.2 44.2 20.5 44Z" fill="url(#paint5_linear_830_17245)"/>
<path d="M20.0999 10.9H44.4999C46.2999 10.9 46.7999 12.9 44.9999 13.4H19.9999C18.4999 13.2 18.6999 11 20.0999 10.9Z" fill="url(#paint6_linear_830_17245)"/>
<path d="M12.6999 71C11.8999 70.3 12.3999 69 13.3999 68.9H31.1999C32.9999 69.4 32.4999 71.4 30.6999 71.4C25.2999 71.1 19.3999 71.9 14.0999 71.4C13.6999 71.4 12.9999 71.3 12.6999 71Z" fill="url(#paint7_linear_830_17245)"/>
<path d="M18.0996 45.3C18.0996 47.5 16.2996 49.3 14.0996 49.3C11.8996 49.3 10.0996 47.5 10.0996 45.3C10.0996 43.1 11.8996 41.3 14.0996 41.3C16.2996 41.3 18.0996 43 18.0996 45.3ZM15.6996 45.3C15.6996 44.4 14.9996 43.8 14.1996 43.8C13.2996 43.8 12.6996 44.5 12.6996 45.3C12.6996 46.1 13.3996 46.8 14.1996 46.8C14.9996 46.8 15.6996 46.1 15.6996 45.3Z" fill="url(#paint8_linear_830_17245)"/>
<path d="M17.5996 12.1C17.5996 14.3 15.7996 16.1 13.5996 16.1C11.3996 16.1 9.59961 14.3 9.59961 12.1C9.59961 9.89998 11.3996 8.09998 13.5996 8.09998C15.7996 8.09998 17.5996 9.89998 17.5996 12.1ZM15.0996 12.1C15.0996 11.3 14.3996 10.6 13.5996 10.6C12.7996 10.6 12.0996 11.3 12.0996 12.1C12.0996 12.9 12.7996 13.6 13.5996 13.6C14.3996 13.7 15.0996 13 15.0996 12.1Z" fill="url(#paint9_linear_830_17245)"/>
<path d="M62.6997 15.3H50.6997C50.4997 15.3 49.8998 14.7 49.8998 14.5V2.40004H2.89978C2.89978 2.40004 2.59973 2.60002 2.59973 2.70002V78.9C2.59973 78.9 2.79978 79.2 2.89978 79.2H56.2998C56.3998 79.2 56.7998 79.7 56.7998 79.8C57.1998 80.6 56.6998 81.5 55.7998 81.5L0.999756 81.4C0.499756 81.2 0.299805 80.7 0.299805 80.2V1.00001C0.399805 0.300011 0.899756 -1.32583e-05 1.49976 0.0999867L51.4998 0.200023L64.5997 13.1L64.9998 13.7V27C64.5998 28.6 62.4998 28 62.4998 26.9V15.3H62.6997ZM60.8998 12.8L52.3998 4.3V12.8H60.8998Z" fill="url(#paint10_linear_830_17245)"/>
<path d="M56 28.7C56 30.9 54.2 32.7 52 32.7C49.8 32.7 48 30.9 48 28.7C48 26.5 49.8 24.7 52 24.7C54.2 24.7 56 26.5 56 28.7ZM53.6 28.7C53.6 27.9 52.9 27.2 52.1 27.2C51.3 27.2 50.6 27.9 50.6 28.7C50.6 29.5 51.3 30.2 52.1 30.2C52.9 30.2 53.6 29.6 53.6 28.7Z" fill="url(#paint11_linear_830_17245)"/>
<path d="M68.1997 29.6C73.5997 29.4 78.8998 33.7 79.2998 39.2C79.7998 45.4 78.8998 52.2 79.2998 58.5C77.4998 71.5 58.7998 71 57.8998 57.7C57.5998 52.8 57.5998 45.1 57.8998 40.1C58.1998 34.4 62.4997 29.8 68.1997 29.6ZM60.3998 56.5C59.5998 65.8 72.7998 69.1 76.2998 60.4C78.2998 55.5 76.1998 45.8 76.9998 40.3C76.2998 28.9 59.9998 29.6 60.3998 41.1H69.1997C69.9997 41.1 70.1998 43.4 68.9998 43.4H60.3998V47.6H69.1997C69.9997 47.6 70.1998 49.9 68.9998 49.9H60.3998V54.1H69.1997C69.9997 54.1 70.1998 56.4 68.9998 56.4H60.3998V56.5Z" fill="url(#paint12_linear_830_17245)"/>
<path d="M69.8995 72.1V80.8H77.8995C77.9995 80.8 78.4995 81.4 78.4995 81.5C78.7995 82.2 78.3994 82.9 77.6994 83.1H59.8995C57.9995 82.9 58.5995 80.7 59.3995 80.7H67.3995V72C61.0995 71.6 55.3995 66.6 54.0995 60.5C53.8995 59.5 53.3994 56.9 54.1994 56.2C54.7994 55.7 55.7995 56 56.0995 56.7C56.2995 57.2 56.2995 58.8 56.3995 59.5C58.7995 72.6 77.6994 73 80.6994 60.1C80.8994 59.2 80.8994 57.2 81.1994 56.6C81.4994 55.8 82.7995 55.7 83.2995 56.5C83.8995 57.5 83.0994 60.9 82.6994 62.1C80.7994 67.6 75.6995 71.6 69.8995 72.1Z" fill="url(#paint13_linear_830_17245)"/>
<defs>
<linearGradient id="paint0_linear_830_17245" x1="32.7987" y1="-13.4106" x2="32.7987" y2="101.992" gradientUnits="userSpaceOnUse">
<stop stop-color="#CA01FF"/>
<stop offset="0.0851506" stop-color="#C30AFE"/>
<stop offset="0.225" stop-color="#AF23FA"/>
<stop offset="0.4022" stop-color="#8F4BF4"/>
<stop offset="0.6097" stop-color="#6283ED"/>
<stop offset="0.84" stop-color="#2ACAE3"/>
<stop offset="1" stop-color="#00FFDB"/>
</linearGradient>
<linearGradient id="paint1_linear_830_17245" x1="32.7994" y1="-13.4106" x2="32.7994" y2="101.992" gradientUnits="userSpaceOnUse">
<stop stop-color="#CA01FF"/>
<stop offset="0.0851506" stop-color="#C30AFE"/>
<stop offset="0.225" stop-color="#AF23FA"/>
<stop offset="0.4022" stop-color="#8F4BF4"/>
<stop offset="0.6097" stop-color="#6283ED"/>
<stop offset="0.84" stop-color="#2ACAE3"/>
<stop offset="1" stop-color="#00FFDB"/>
</linearGradient>
<linearGradient id="paint2_linear_830_17245" x1="32.8074" y1="-13.4106" x2="32.8074" y2="101.992" gradientUnits="userSpaceOnUse">
<stop stop-color="#CA01FF"/>
<stop offset="0.0851506" stop-color="#C30AFE"/>
<stop offset="0.225" stop-color="#AF23FA"/>
<stop offset="0.4022" stop-color="#8F4BF4"/>
<stop offset="0.6097" stop-color="#6283ED"/>
<stop offset="0.84" stop-color="#2ACAE3"/>
<stop offset="1" stop-color="#00FFDB"/>
</linearGradient>
<linearGradient id="paint3_linear_830_17245" x1="29.1419" y1="-13.4106" x2="29.1419" y2="101.992" gradientUnits="userSpaceOnUse">
<stop stop-color="#CA01FF"/>
<stop offset="0.0851506" stop-color="#C30AFE"/>
<stop offset="0.225" stop-color="#AF23FA"/>
<stop offset="0.4022" stop-color="#8F4BF4"/>
<stop offset="0.6097" stop-color="#6283ED"/>
<stop offset="0.84" stop-color="#2ACAE3"/>
<stop offset="1" stop-color="#00FFDB"/>
</linearGradient>
<linearGradient id="paint4_linear_830_17245" x1="29.1447" y1="-13.4106" x2="29.1447" y2="101.992" gradientUnits="userSpaceOnUse">
<stop stop-color="#CA01FF"/>
<stop offset="0.0851506" stop-color="#C30AFE"/>
<stop offset="0.225" stop-color="#AF23FA"/>
<stop offset="0.4022" stop-color="#8F4BF4"/>
<stop offset="0.6097" stop-color="#6283ED"/>
<stop offset="0.84" stop-color="#2ACAE3"/>
<stop offset="1" stop-color="#00FFDB"/>
</linearGradient>
<linearGradient id="paint5_linear_830_17245" x1="36.3097" y1="-13.4106" x2="36.3097" y2="101.992" gradientUnits="userSpaceOnUse">
<stop stop-color="#CA01FF"/>
<stop offset="0.0851506" stop-color="#C30AFE"/>
<stop offset="0.225" stop-color="#AF23FA"/>
<stop offset="0.4022" stop-color="#8F4BF4"/>
<stop offset="0.6097" stop-color="#6283ED"/>
<stop offset="0.84" stop-color="#2ACAE3"/>
<stop offset="1" stop-color="#00FFDB"/>
</linearGradient>
<linearGradient id="paint6_linear_830_17245" x1="32.5668" y1="-13.4106" x2="32.5668" y2="101.992" gradientUnits="userSpaceOnUse">
<stop stop-color="#CA01FF"/>
<stop offset="0.0851506" stop-color="#C30AFE"/>
<stop offset="0.225" stop-color="#AF23FA"/>
<stop offset="0.4022" stop-color="#8F4BF4"/>
<stop offset="0.6097" stop-color="#6283ED"/>
<stop offset="0.84" stop-color="#2ACAE3"/>
<stop offset="1" stop-color="#00FFDB"/>
</linearGradient>
<linearGradient id="paint7_linear_830_17245" x1="22.2964" y1="-13.4106" x2="22.2964" y2="101.992" gradientUnits="userSpaceOnUse">
<stop stop-color="#CA01FF"/>
<stop offset="0.0851506" stop-color="#C30AFE"/>
<stop offset="0.225" stop-color="#AF23FA"/>
<stop offset="0.4022" stop-color="#8F4BF4"/>
<stop offset="0.6097" stop-color="#6283ED"/>
<stop offset="0.84" stop-color="#2ACAE3"/>
<stop offset="1" stop-color="#00FFDB"/>
</linearGradient>
<linearGradient id="paint8_linear_830_17245" x1="14.1335" y1="-13.4106" x2="14.1335" y2="101.992" gradientUnits="userSpaceOnUse">
<stop stop-color="#CA01FF"/>
<stop offset="0.0851506" stop-color="#C30AFE"/>
<stop offset="0.225" stop-color="#AF23FA"/>
<stop offset="0.4022" stop-color="#8F4BF4"/>
<stop offset="0.6097" stop-color="#6283ED"/>
<stop offset="0.84" stop-color="#2ACAE3"/>
<stop offset="1" stop-color="#00FFDB"/>
</linearGradient>
<linearGradient id="paint9_linear_830_17245" x1="13.5517" y1="-13.4106" x2="13.5517" y2="101.992" gradientUnits="userSpaceOnUse">
<stop stop-color="#CA01FF"/>
<stop offset="0.0851506" stop-color="#C30AFE"/>
<stop offset="0.225" stop-color="#AF23FA"/>
<stop offset="0.4022" stop-color="#8F4BF4"/>
<stop offset="0.6097" stop-color="#6283ED"/>
<stop offset="0.84" stop-color="#2ACAE3"/>
<stop offset="1" stop-color="#00FFDB"/>
</linearGradient>
<linearGradient id="paint10_linear_830_17245" x1="32.8023" y1="-13.4106" x2="32.8023" y2="101.992" gradientUnits="userSpaceOnUse">
<stop stop-color="#CA01FF"/>
<stop offset="0.0851506" stop-color="#C30AFE"/>
<stop offset="0.225" stop-color="#AF23FA"/>
<stop offset="0.4022" stop-color="#8F4BF4"/>
<stop offset="0.6097" stop-color="#6283ED"/>
<stop offset="0.84" stop-color="#2ACAE3"/>
<stop offset="1" stop-color="#00FFDB"/>
</linearGradient>
<linearGradient id="paint11_linear_830_17245" x1="52.041" y1="-13.4106" x2="52.041" y2="101.992" gradientUnits="userSpaceOnUse">
<stop stop-color="#CA01FF"/>
<stop offset="0.0851506" stop-color="#C30AFE"/>
<stop offset="0.225" stop-color="#AF23FA"/>
<stop offset="0.4022" stop-color="#8F4BF4"/>
<stop offset="0.6097" stop-color="#6283ED"/>
<stop offset="0.84" stop-color="#2ACAE3"/>
<stop offset="1" stop-color="#00FFDB"/>
</linearGradient>
<linearGradient id="paint12_linear_830_17245" x1="68.5124" y1="-13.4107" x2="68.5124" y2="101.992" gradientUnits="userSpaceOnUse">
<stop stop-color="#CA01FF"/>
<stop offset="0.0851506" stop-color="#C30AFE"/>
<stop offset="0.225" stop-color="#AF23FA"/>
<stop offset="0.4022" stop-color="#8F4BF4"/>
<stop offset="0.6097" stop-color="#6283ED"/>
<stop offset="0.84" stop-color="#2ACAE3"/>
<stop offset="1" stop-color="#00FFDB"/>
</linearGradient>
<linearGradient id="paint13_linear_830_17245" x1="68.6182" y1="-13.4106" x2="68.6182" y2="101.992" gradientUnits="userSpaceOnUse">
<stop stop-color="#CA01FF"/>
<stop offset="0.0851506" stop-color="#C30AFE"/>
<stop offset="0.225" stop-color="#AF23FA"/>
<stop offset="0.4022" stop-color="#8F4BF4"/>
<stop offset="0.6097" stop-color="#6283ED"/>
<stop offset="0.84" stop-color="#2ACAE3"/>
<stop offset="1" stop-color="#00FFDB"/>
</linearGradient>
</defs>
</svg>
