<svg width="1440" height="1144" viewBox="0 0 1440 1144" fill="none" xmlns="http://www.w3.org/2000/svg">
<g clip-path="url(#clip0_857_24346)">
<mask id="mask0_857_24346" style="mask-type:luminance" maskUnits="userSpaceOnUse" x="0" y="-536" width="1440" height="3417">
<path d="M1440 -536H0V2880.5H1440V-536Z" fill="white"/>
</mask>
<g mask="url(#mask0_857_24346)">
</g>
<mask id="mask1_857_24346" style="mask-type:luminance" maskUnits="userSpaceOnUse" x="0" y="-536" width="1440" height="3417">
<path d="M1440 -536H0V2880.5H1440V-536Z" fill="white"/>
</mask>
<g mask="url(#mask1_857_24346)">
</g>
<mask id="mask2_857_24346" style="mask-type:luminance" maskUnits="userSpaceOnUse" x="0" y="-536" width="1440" height="3417">
<path d="M1440 -536H0V2880.5H1440V-536Z" fill="white"/>
</mask>
<g mask="url(#mask2_857_24346)">
</g>
<mask id="mask3_857_24346" style="mask-type:luminance" maskUnits="userSpaceOnUse" x="0" y="-536" width="1440" height="3417">
<path d="M1440 -536H0V2880.5H1440V-536Z" fill="white"/>
</mask>
<g mask="url(#mask3_857_24346)">
<path d="M1522.6 138.7V1080.6H-68.9004C-60.1004 719 -45.5004 288.2 -45.5004 33.5996H257.2L262.1 35.0996L277.7 39.8997L293.2 45.0996L308.5 50.6996C313.6 52.6996 318.6 54.6996 323.7 56.7996C333.7 60.9996 343.7 65.3996 353.4 70.1996C363.2 74.8996 372.8 80.0996 382.3 85.2996C391.8 90.5996 401.1 96.0996 410.5 101.6C419.8 107.1 429.2 112.6 438.6 117.8C448 123.1 457.7 127.9 467.4 132.3C468.6 132.9 469.8 133.5 471.1 134L474.8 135.6L482.2 138.8C484.7 139.9 487.2 140.8 489.7 141.8L497.2 144.6C517.4 151.9 538.2 157.7 559.2 161.9C580.2 166.2 601.5 169.1 622.9 171C644.3 172.9 665.7 173.6 687.2 173.6C708.6 173.6 730.1 172.6 751.5 171.2C772.9 169.8 794.3 167.7 815.6 165.3C858.3 160.4 900.7 153.8 943.1 146.6C964.3 142.9 985.4 139.2 1006.6 135.2L1070 123.4C1091.2 119.6 1112.3 115.6 1133.6 112.1L1197.4 101.5C1218.7 97.9996 1240.1 94.3997 1261.7 91.3997C1283.3 88.3997 1305 85.7996 1327 84.4996C1332.5 84.1996 1338 83.8996 1343.5 83.7996C1346.3 83.6996 1349 83.6996 1351.8 83.5996C1354.6 83.4996 1357.3 83.5996 1360.1 83.5996L1368.4 83.6996L1376.8 84.0996C1379.6 84.2996 1382.4 84.2996 1385.2 84.5996L1393.6 85.2996C1404.8 86.2996 1415.9 87.7997 1427 89.8997C1429.8 90.2997 1432.6 90.9996 1435.3 91.5996C1438.1 92.1996 1440.9 92.7997 1443.6 93.3997C1449.1 94.8997 1454.6 96.1997 1460.1 97.8997L1468.3 100.5L1472.4 101.8L1476.4 103.3C1479.1 104.3 1481.8 105.3 1484.4 106.5C1487 107.7 1489.5 109.2 1492 110.6C1493.2 111.4 1494.5 112.1 1495.7 113C1496.9 113.8 1498.1 114.7 1499.3 115.6C1501.6 117.4 1504 119.3 1506.1 121.3C1507.4 122.5 1509.2 124.2 1512.5 127.6C1515.2 130.5 1518.6 134.1 1522.6 138.7Z" fill="#F5F5F5"/>
</g>
<mask id="mask4_857_24346" style="mask-type:luminance" maskUnits="userSpaceOnUse" x="0" y="-536" width="1440" height="3417">
<path d="M1440 -536H0V2880.5H1440V-536Z" fill="white"/>
</mask>
<g mask="url(#mask4_857_24346)">
</g>
<mask id="mask5_857_24346" style="mask-type:luminance" maskUnits="userSpaceOnUse" x="0" y="-536" width="1440" height="3417">
<path d="M1440 -536H0V2880.5H1440V-536Z" fill="white"/>
</mask>
<g mask="url(#mask5_857_24346)">
</g>
<mask id="mask6_857_24346" style="mask-type:luminance" maskUnits="userSpaceOnUse" x="0" y="-536" width="1440" height="3417">
<path d="M1440 -536H0V2880.5H1440V-536Z" fill="white"/>
</mask>
<g mask="url(#mask6_857_24346)">
</g>
<mask id="mask7_857_24346" style="mask-type:luminance" maskUnits="userSpaceOnUse" x="0" y="-536" width="1440" height="3417">
<path d="M1440 -536H0V2880.5H1440V-536Z" fill="white"/>
</mask>
<g mask="url(#mask7_857_24346)">
</g>
<mask id="mask8_857_24346" style="mask-type:luminance" maskUnits="userSpaceOnUse" x="0" y="-536" width="1440" height="3417">
<path d="M1440 -536H0V2880.5H1440V-536Z" fill="white"/>
</mask>
<g mask="url(#mask8_857_24346)">
</g>
<mask id="mask9_857_24346" style="mask-type:luminance" maskUnits="userSpaceOnUse" x="0" y="-536" width="1440" height="3417">
<path d="M1440 -536H0V2880.5H1440V-536Z" fill="white"/>
</mask>
<g mask="url(#mask9_857_24346)">
</g>
<mask id="mask10_857_24346" style="mask-type:luminance" maskUnits="userSpaceOnUse" x="0" y="-536" width="1440" height="3417">
<path d="M1440 -536H0V2880.5H1440V-536Z" fill="white"/>
</mask>
<g mask="url(#mask10_857_24346)">
</g>
<mask id="mask11_857_24346" style="mask-type:luminance" maskUnits="userSpaceOnUse" x="0" y="-536" width="1440" height="3417">
<path d="M1440 -536H0V2880.5H1440V-536Z" fill="white"/>
</mask>
<g mask="url(#mask11_857_24346)">
</g>
<mask id="mask12_857_24346" style="mask-type:luminance" maskUnits="userSpaceOnUse" x="0" y="-536" width="1440" height="3417">
<path d="M1440 -536H0V2880.5H1440V-536Z" fill="white"/>
</mask>
<g mask="url(#mask12_857_24346)">
</g>
<mask id="mask13_857_24346" style="mask-type:luminance" maskUnits="userSpaceOnUse" x="0" y="-536" width="1440" height="3417">
<path d="M1440 -536H0V2880.5H1440V-536Z" fill="white"/>
</mask>
<g mask="url(#mask13_857_24346)">
</g>
<mask id="mask14_857_24346" style="mask-type:luminance" maskUnits="userSpaceOnUse" x="0" y="-536" width="1440" height="3417">
<path d="M1440 -536H0V2880.5H1440V-536Z" fill="white"/>
</mask>
<g mask="url(#mask14_857_24346)">
</g>
<mask id="mask15_857_24346" style="mask-type:luminance" maskUnits="userSpaceOnUse" x="0" y="-536" width="1440" height="3417">
<path d="M1440 -536H0V2880.5H1440V-536Z" fill="white"/>
</mask>
<g mask="url(#mask15_857_24346)">
</g>
<mask id="mask16_857_24346" style="mask-type:luminance" maskUnits="userSpaceOnUse" x="0" y="-536" width="1440" height="3417">
<path d="M1440 -536H0V2880.5H1440V-536Z" fill="white"/>
</mask>
<g mask="url(#mask16_857_24346)">
</g>
<mask id="mask17_857_24346" style="mask-type:luminance" maskUnits="userSpaceOnUse" x="0" y="-536" width="1440" height="3417">
<path d="M1440 -536H0V2880.5H1440V-536Z" fill="white"/>
</mask>
<g mask="url(#mask17_857_24346)">
</g>
<mask id="mask18_857_24346" style="mask-type:luminance" maskUnits="userSpaceOnUse" x="0" y="-536" width="1440" height="3417">
<path d="M1440 -536H0V2880.5H1440V-536Z" fill="white"/>
</mask>
<g mask="url(#mask18_857_24346)">
</g>
<mask id="mask19_857_24346" style="mask-type:luminance" maskUnits="userSpaceOnUse" x="0" y="-536" width="1440" height="3417">
<path d="M1440 -536H0V2880.5H1440V-536Z" fill="white"/>
</mask>
<g mask="url(#mask19_857_24346)">
</g>
<mask id="mask20_857_24346" style="mask-type:luminance" maskUnits="userSpaceOnUse" x="0" y="-536" width="1440" height="3417">
<path d="M1440 -536H0V2880.5H1440V-536Z" fill="white"/>
</mask>
<g mask="url(#mask20_857_24346)">
</g>
<mask id="mask21_857_24346" style="mask-type:luminance" maskUnits="userSpaceOnUse" x="0" y="-536" width="1440" height="3417">
<path d="M1440 -536H0V2880.5H1440V-536Z" fill="white"/>
</mask>
<g mask="url(#mask21_857_24346)">
</g>
<mask id="mask22_857_24346" style="mask-type:luminance" maskUnits="userSpaceOnUse" x="0" y="-536" width="1440" height="3417">
<path d="M1440 -536H0V2880.5H1440V-536Z" fill="white"/>
</mask>
<g mask="url(#mask22_857_24346)">
</g>
<mask id="mask23_857_24346" style="mask-type:luminance" maskUnits="userSpaceOnUse" x="0" y="-536" width="1440" height="3417">
<path d="M1440 -536H0V2880.5H1440V-536Z" fill="white"/>
</mask>
<g mask="url(#mask23_857_24346)">
</g>
<mask id="mask24_857_24346" style="mask-type:luminance" maskUnits="userSpaceOnUse" x="0" y="-536" width="1440" height="3417">
<path d="M1440 -536H0V2880.5H1440V-536Z" fill="white"/>
</mask>
<g mask="url(#mask24_857_24346)">
</g>
<mask id="mask25_857_24346" style="mask-type:luminance" maskUnits="userSpaceOnUse" x="0" y="-536" width="1440" height="3417">
<path d="M1440 -536H0V2880.5H1440V-536Z" fill="white"/>
</mask>
<g mask="url(#mask25_857_24346)">
</g>
<mask id="mask26_857_24346" style="mask-type:luminance" maskUnits="userSpaceOnUse" x="0" y="-536" width="1440" height="3417">
<path d="M1440 -536H0V2880.5H1440V-536Z" fill="white"/>
</mask>
<g mask="url(#mask26_857_24346)">
</g>
<mask id="mask27_857_24346" style="mask-type:luminance" maskUnits="userSpaceOnUse" x="0" y="-536" width="1440" height="3417">
<path d="M1440 -536H0V2880.5H1440V-536Z" fill="white"/>
</mask>
<g mask="url(#mask27_857_24346)">
</g>
<mask id="mask28_857_24346" style="mask-type:luminance" maskUnits="userSpaceOnUse" x="0" y="-536" width="1440" height="3417">
<path d="M1440 -536H0V2880.5H1440V-536Z" fill="white"/>
</mask>
<g mask="url(#mask28_857_24346)">
</g>
<mask id="mask29_857_24346" style="mask-type:luminance" maskUnits="userSpaceOnUse" x="0" y="-536" width="1440" height="3417">
<path d="M1440 -536H0V2880.5H1440V-536Z" fill="white"/>
</mask>
<g mask="url(#mask29_857_24346)">
<g opacity="0.5">
<path d="M-67.5 8.30044C-22.7 5.20044 22.6 3.10046 67.4 4.70046C127.8 6.90046 188 14.9005 246.4 30.7005C282.8 40.4005 319.4 53.0004 353.4 69.1004C393.7 87.7004 430.2 113.4 471 130.9C476.9 133.3 483.7 136.2 489.6 138.3C633.1 190.4 795.7 166 943 142.9C1047.4 124.9 1156.5 104.3 1261.5 89.5005C1321.6 81.1005 1383.9 77.3005 1443.5 91.4005C1451.9 93.5005 1460 95.6004 1468.2 98.3004C1479.1 101.6 1490.1 106 1499.2 113C1515.4 125.1 1527.1 142.3 1543.1 154.6C1547.4 157.9 1551.8 161.1 1556.2 164.3L1562.6 169.4L1565.8 171.9L1568.9 174.5L1575.1 179.8C1582.7 186.7 1591.3 195 1598.2 202.6C1651.5 260.3 1683.4 334.3 1703.7 409.4C1711.2 437.6 1717.5 467.3 1722.2 496.1L1723.4 504.1L1725.8 520L1725 520.1C1708.8 410 1676 296.2 1599.3 212.5C1595.7 208.6 1591.9 204.8 1588.2 201.1L1582.4 195.6C1581.4 194.7 1580.5 193.8 1579.5 192.9L1576.5 190.3C1564.6 179.9 1552 169.7 1538.4 161.6C1521.7 152 1501.9 152.1 1483.4 149.4C1474.7 148 1466 145.7 1457.8 142.5C1427.9 132.2 1396.4 125 1364.9 119.6C1331 114 1297.1 110.4 1262.6 109.3C1177.1 106.2 1091.3 121.6 1007 134.6C832 162 644.4 201.5 473.7 134.9L469.9 133.4C468.7 132.9 467.4 132.3 466.2 131.8L458.8 128.6C451.6 125.5 444 121.7 436.9 118.2C394.2 95.9005 352 72.2004 305.6 58.8004C293.3 55.2004 286.3 53.5004 274.7 50.6004L259.1 47.4005L251.3 45.8004C242 44.3004 229.1 42.1004 219.8 41.1004L211.9 40.2005C206.6 39.7005 201.4 39.0004 196.1 38.8004C133.4 34.2004 69.4 41.4005 9.3 59.9005C-10.6 66.1005 -30.2 73.2004 -49 82.1004C-49.1 82.2004 -67.5 8.30044 -67.5 8.30044Z" fill="#D1C2F9"/>
</g>
</g>
<mask id="mask30_857_24346" style="mask-type:luminance" maskUnits="userSpaceOnUse" x="0" y="-536" width="1440" height="3417">
<path d="M1440 -536H0V2880.5H1440V-536Z" fill="white"/>
</mask>
<g mask="url(#mask30_857_24346)">
<g opacity="0.5">
<path d="M1725.9 520L1725.1 520.1C1718.9 477.6 1710.3 435.4 1697.8 394.4C1691.5 373.9 1684.3 353.7 1675.9 334C1667.5 314.3 1658 295.1 1647 276.7C1636.1 258.3 1623.8 240.8 1610 224.5C1606.7 220.4 1603 216.5 1599.4 212.5L1598.1 211L1596.7 209.6L1593.9 206.7C1592 204.8 1590.2 202.9 1588.3 201L1582.5 195.5C1581.5 194.6 1580.6 193.6 1579.6 192.8L1576.6 190.2L1570.6 185L1564.4 180C1556.1 173.4 1547.6 166.9 1538.5 161.6C1536.2 160.3 1533.8 159.1 1531.3 158.1C1528.8 157.1 1526.3 156.2 1523.7 155.4C1523.4 155.3 1523 155.2 1522.7 155.1C1521.7 154.8 1520.8 154.6 1519.8 154.4C1518.5 154.1 1517.1 153.8 1515.8 153.6C1514.5 153.3 1513.1 153.1 1511.8 152.8C1510.4 152.6 1509.1 152.4 1507.7 152.2C1504.9 151.9 1502.3 151.5 1499.5 151.2C1496.8 150.9 1494.1 150.7 1491.4 150.4C1488.8 150 1486.1 149.8 1483.5 149.4C1482.2 149.2 1480.9 149 1479.7 148.7C1478.4 148.5 1477.2 148.2 1475.9 148C1474.7 147.7 1473.4 147.4 1472.2 147.1L1468.5 146.1C1466.1 145.4 1463.7 144.6 1461.3 143.8L1457.8 142.5L1454.2 141.3L1447 138.9C1427.8 132.7 1408 127.9 1387.8 123.8L1380.2 122.3C1377.7 121.8 1375.1 121.4 1372.6 120.9L1364.9 119.5L1357.2 118.3C1354.6 117.9 1352.1 117.4 1349.5 117.1C1346.9 116.8 1344.3 116.4 1341.7 116C1336.5 115.2 1331.3 114.6 1326.1 114C1305.2 111.5 1284 109.9 1262.7 109.2C1241.4 108.5 1219.9 108.7 1198.6 109.9C1177.2 111 1155.9 113.2 1134.6 115.9C1113.3 118.6 1092 121.4 1070.8 124.6L1039 129.4L1007.2 134.5L943.601 144.8C901.201 151.7 858.701 158.2 816.001 163.1C773.301 168 730.401 171.2 687.401 171.2C644.401 171.2 601.301 168 559.101 159.7C538.001 155.5 517.101 150.1 496.701 143.2L489.101 140.5C486.601 139.6 484.001 138.8 481.501 137.7L474.001 134.8L470.201 133.3C469.001 132.8 467.701 132.2 466.501 131.7L459.101 128.5L455.401 126.9L451.801 125.2C446.901 122.9 442.101 120.5 437.301 118.2C418.101 108.5 399.401 97.9004 380.101 88.5004C360.901 79.0004 341.301 70.6004 321.101 63.7004C316.001 62.0004 311.001 60.4004 305.901 58.8004C300.801 57.3004 295.701 55.9004 290.501 54.5004L275.001 50.6004L259.401 47.4004L251.601 45.8004C249.001 45.3004 246.401 44.9004 243.701 44.5004L228.001 42.1004C225.401 41.7004 222.701 41.5004 220.101 41.1004L212.201 40.2004C206.901 39.7004 201.701 39.0004 196.401 38.8004L180.501 37.9004C177.901 37.7004 175.201 37.7004 172.601 37.7004L164.701 37.6004L156.801 37.5004H154.801L152.801 37.6004L148.801 37.7004L133.001 38.2004C112.001 39.4004 91.1008 41.7004 70.4008 45.3004C49.8008 49.0004 29.4008 53.9004 9.50079 60.0004C-9.09921 65.8004 -27.4992 72.4004 -45.1992 80.5004C-46.3992 81.1004 -47.5992 81.6004 -48.7992 82.2004L-67.1992 8.30039C-61.4992 8.00039 -55.7992 7.60042 -50.0992 7.20042C-44.3992 6.90042 -38.6992 6.60042 -33.0992 6.20042C-27.3992 5.90042 -21.7992 5.70043 -16.1992 5.40043C-10.5992 5.10043 -4.89922 5.00039 0.700783 4.80039C23.2008 4.10039 45.5008 4.10039 67.8008 4.80039C90.0008 5.60039 112.101 7.30038 134.001 9.60038C144.901 11.1004 155.801 12.2004 166.701 14.0004L174.801 15.3004C177.501 15.7004 180.201 16.1004 182.901 16.6004L199.001 19.7004C204.401 20.6004 209.701 21.9004 215.001 23.1004L223.001 24.9004C225.701 25.5004 228.301 26.0004 231.001 26.8004L246.801 30.9004C249.401 31.6004 252.101 32.2004 254.701 33.0004L257.601 33.9004L262.501 35.4004L278.101 40.0004L293.601 45.1004L308.901 50.5004C314.001 52.5004 319.001 54.4004 324.101 56.4004C334.101 60.5004 344.101 64.7004 353.801 69.4004C363.601 73.9004 373.201 78.9004 382.701 84.0004C392.201 89.1004 401.501 94.5004 410.901 99.8004C420.201 105.1 429.601 110.4 439.001 115.5C448.401 120.6 458.101 125.2 467.801 129.6C469.001 130.2 470.201 130.7 471.501 131.2L475.201 132.7L482.601 135.7C485.101 136.8 487.601 137.6 490.101 138.6L497.601 141.3C517.801 148.4 538.601 153.9 559.601 158.1C580.601 162.3 601.901 165.1 623.301 166.9C644.701 168.7 666.101 169.4 687.601 169.4C709.001 169.4 730.501 168.5 751.901 167.1C773.301 165.7 794.701 163.7 816.001 161.3C858.701 156.5 901.101 150.2 943.501 143.2C964.701 139.6 985.801 136 1007 132.2L1070.4 120.8C1091.6 117.1 1112.7 113.3 1134 109.9L1197.8 99.7004C1219.1 96.3004 1240.5 92.9004 1262.1 90.0004C1283.7 87.1004 1305.4 84.6004 1327.4 83.3004C1332.9 83.0004 1338.4 82.7004 1343.9 82.6004C1346.7 82.5004 1349.4 82.5004 1352.2 82.4004C1355 82.3004 1357.7 82.4004 1360.5 82.4004L1368.8 82.5004L1377.2 82.8004C1380 83.0004 1382.8 83.0004 1385.6 83.2004L1394 83.9004C1405.2 84.8004 1416.3 86.4004 1427.4 88.3004C1430.2 88.7004 1433 89.4004 1435.7 89.9004C1438.5 90.5004 1441.3 91.1004 1444 91.7004C1449.5 93.1004 1455 94.4004 1460.5 96.1004L1468.7 98.6004L1472.8 99.9004L1476.8 101.3C1479.5 102.2 1482.2 103.3 1484.8 104.4C1487.4 105.5 1489.9 107 1492.4 108.4C1493.6 109.2 1494.9 109.9 1496.1 110.7C1497.3 111.5 1498.5 112.4 1499.7 113.2C1502 115 1504.4 116.7 1506.5 118.8C1508.7 120.8 1510.8 122.9 1512.9 124.9C1515 127 1517 129.2 1519 131.3C1520 132.4 1521 133.4 1522 134.5C1522.3 134.8 1522.6 135.2 1522.9 135.5C1523.6 136.2 1524.3 137 1525 137.7C1527 139.9 1529 141.8 1531 143.8C1533 145.8 1535 147.7 1537.1 149.5L1540.2 152.2C1541.2 153.1 1542.3 154 1543.4 154.8C1547.7 158.1 1552.1 161.3 1556.5 164.5L1562.9 169.6L1566.1 172.1L1569.2 174.7L1575.4 180L1581.4 185.5L1584.4 188.3C1585.4 189.2 1586.3 190.2 1587.3 191.2L1593.1 197C1595 198.9 1596.8 201 1598.6 202.9L1602.7 207.4L1604 208.9C1607.5 213 1611.1 217.1 1614.4 221.3C1627.9 238.2 1640 256.2 1650.6 274.9C1661.2 293.7 1670.5 313.2 1678.6 333.1C1686.7 353.1 1693.6 373.4 1699.7 394.1L1704.1 409.6L1708.1 425.2C1709.5 430.4 1710.6 435.6 1711.8 440.9C1713 446.1 1714.2 451.4 1715.2 456.6L1718.4 472.4C1719.4 477.7 1720.3 483 1721.2 488.3L1722.6 496.2L1723.8 504.2L1725.9 520Z" fill="#D1C2F9"/>
</g>
</g>
<mask id="mask31_857_24346" style="mask-type:luminance" maskUnits="userSpaceOnUse" x="0" y="-536" width="1440" height="3417">
<path d="M1440 -536H0V2880.5H1440V-536Z" fill="white"/>
</mask>
<g mask="url(#mask31_857_24346)">
<path d="M-46 42.3008C170.8 -12.3992 478.5 27.7008 614.9 62.6008C785.5 106.201 856.4 166.301 1013 164.501C1191.9 162.501 1350.6 81.2008 1459.8 9.80078" stroke="#D1C2F9" stroke-width="0.7798" stroke-miterlimit="10"/>
</g>
<mask id="mask32_857_24346" style="mask-type:luminance" maskUnits="userSpaceOnUse" x="0" y="-536" width="1440" height="3417">
<path d="M1440 -536H0V2880.5H1440V-536Z" fill="white"/>
</mask>
<g mask="url(#mask32_857_24346)">
</g>
<mask id="mask33_857_24346" style="mask-type:luminance" maskUnits="userSpaceOnUse" x="0" y="-536" width="1440" height="3417">
<path d="M1440 -536H0V2880.5H1440V-536Z" fill="white"/>
</mask>
<g mask="url(#mask33_857_24346)">
</g>
<mask id="mask34_857_24346" style="mask-type:luminance" maskUnits="userSpaceOnUse" x="0" y="-536" width="1440" height="3417">
<path d="M1440 -536H0V2880.5H1440V-536Z" fill="white"/>
</mask>
<g mask="url(#mask34_857_24346)">
</g>
<mask id="mask35_857_24346" style="mask-type:luminance" maskUnits="userSpaceOnUse" x="0" y="-536" width="1440" height="3417">
<path d="M1440 -536H0V2880.5H1440V-536Z" fill="white"/>
</mask>
<g mask="url(#mask35_857_24346)">
</g>
<mask id="mask36_857_24346" style="mask-type:luminance" maskUnits="userSpaceOnUse" x="0" y="-536" width="1440" height="3417">
<path d="M1440 -536H0V2880.5H1440V-536Z" fill="white"/>
</mask>
<g mask="url(#mask36_857_24346)">
<mask id="mask37_857_24346" style="mask-type:luminance" maskUnits="userSpaceOnUse" x="-257" y="1068" width="1632" height="38">
<path d="M-256.068 1105.7L1374.33 1105.7L1374.33 1068.8L-256.068 1068.8L-256.068 1105.7Z" fill="white"/>
</mask>
<g mask="url(#mask37_857_24346)">
<g opacity="0.5">
<path d="M-8543.3 976.398H-8536.8C-8484.7 988.898 -8411.6 1001.2 -8305.8 1013.3C-8252.4 1019.3 -8191.4 1025.2 -8120.3 1031C-8049.4 1036.8 -7968.9 1042.4 -7876.2 1047.8C-7783.7 1053.2 -7679.9 1058.3 -7563.7 1063.1C-7535.4 1064.3 -7504.3 1065.4 -7474.3 1066.6L-7463 1067L-7451.3 1067.4L-7427.7 1068.2C-7411.9 1068.8 -7396.5 1069.3 -7380.4 1069.9L-7331.5 1071.5C-7323.3 1071.8 -7315.3 1072 -7307 1072.3L-7281.6 1073.1L-7231 1074.6L-7178.8 1076.1C-7108.4 1078 -7037.2 1079.9 -6959.7 1081.5C-6939.8 1081.9 -6920.1 1082.2 -6898.9 1082.5C-6877.8 1082.8 -6856.4 1083.1 -6834.5 1083.3C-6831.6 1083.3 -6828.8 1083.4 -6825.9 1083.4C-6817.8 1083.5 -6809.5 1083.6 -6801.1 1083.6C-6789.9 1083.7 -6778.5 1083.8 -6767 1083.8C-6755.7 1083.9 -6744.4 1084 -6732.9 1084C-6721.4 1084.1 -6709.8 1084.1 -6698.3 1084.2C-6675.1 1084.3 -6652.2 1084.4 -6629.3 1084.5C-6606.2 1084.6 -6583.3 1084.6 -6561 1084.7C-6538.7 1084.8 -6516.2 1084.9 -6494.5 1085C-6483.7 1085.1 -6472.9 1085.1 -6462.3 1085.2C-6451.5 1085.3 -6440.9 1085.3 -6430.3 1085.4C-6419.8 1085.5 -6409.3 1085.6 -6399 1085.7L-6368.2 1086C-6347.7 1086.2 -6327.6 1086.4 -6307.7 1086.7L-6277.8 1087.1L-6247.5 1087.4L-6186.9 1088.1C-6024.6 1089.9 -5857 1091.3 -5686.4 1092.5L-5622.3 1092.9C-5600.9 1093.1 -5579.3 1093.2 -5557.7 1093.3L-5493 1093.7L-5427.8 1094.1C-5406.1 1094.2 -5384.4 1094.4 -5362.5 1094.5C-5340.6 1094.6 -5318.6 1094.7 -5296.8 1094.8C-5253 1095 -5208.8 1095.2 -5164.7 1095.4C-4987.9 1096.1 -4808.7 1096.6 -4628.5 1096.8C-4448.3 1097 -4267.2 1096.9 -4086.5 1096.6C-3905.7 1096.3 -3725.3 1095.6 -3545.5 1094.8C-3365.7 1094 -3185.8 1093.2 -3006.5 1092.2L-2737.4 1090.8L-2468.6 1089.3L-1931.1 1086.3C-1572.8 1084.3 -1213.8 1082.4 -852.899 1080.9C-492.099 1079.5 -129.299 1078.5 234.201 1078.5C597.501 1078.5 961.701 1079.4 1318.7 1081.9C1497 1083.1 1673.6 1084.7 1845.9 1086.7L1910.3 1087.5C1931.8 1087.8 1953.3 1088 1974.4 1088.3L2038 1089.2L2069.9 1089.6C2080.4 1089.7 2090.8 1089.9 2101.3 1090.1L2164 1091L2195.4 1091.5L2226.2 1092C2267.6 1092.7 2308.3 1093.4 2349.2 1094.1C2511.9 1096.9 2669.8 1100 2832.3 1102.8C2994.3 1105.6 3160.2 1108.1 3330.6 1110.1C3373.3 1110.6 3416.3 1111.1 3459.1 1111.5C3502.4 1111.9 3545.6 1112.4 3589 1112.8L3720 1113.9L3852.1 1114.8L3918.1 1115.3C3940.2 1115.5 3962.5 1115.6 3984.6 1115.7L4117.6 1116.4C4139.7 1116.5 4162.1 1116.6 4184.4 1116.7L4251.2 1116.9C4295.8 1117.1 4340.1 1117.2 4384.9 1117.3L4518.8 1117.6C4541 1117.7 4563.4 1117.7 4585.7 1117.7H4652.6H4719.4H4736.1H4752.8H4786.3L4919.7 1117.6C5097.5 1117.2 5274.1 1116.6 5448.5 1115.5C5622.8 1114.4 5794.7 1113 5963.2 1111.2C6120.8 1109.5 6275.7 1107.6 6425.8 1105.2C6435.9 1105 6446.1 1104.9 6456.2 1104.7L6611.7 1126.4C6563.3 1126.5 6515.4 1126.6 6467.5 1126.7C6419.5 1126.8 6371.6 1126.9 6324 1127C6276.2 1127.1 6228.4 1127.2 6180.9 1127.2C6133.4 1127.3 6085.6 1127.3 6038.2 1127.4C5848.1 1127.6 5659.3 1127.6 5471.5 1127.4C5283.6 1127.2 5097 1126.7 4912 1126C4819.5 1125.6 4727.3 1125.2 4635.8 1124.7L4567.2 1124.3C4544.3 1124.2 4521.4 1124.1 4498.7 1123.9L4362.5 1123C4317 1122.7 4272.2 1122.3 4227.1 1122L4159.6 1121.5C4137.2 1121.3 4114.6 1121.2 4092.4 1121L3958.8 1119.8C3936.7 1119.6 3914.3 1119.4 3892.2 1119.2L3867.5 1118.9L3826.2 1118.5L3694.4 1117.1L3563.7 1115.6L3434.2 1114C3391.4 1113.4 3348.7 1112.9 3306.2 1112.3C3221.4 1111.1 3137.4 1109.9 3054.9 1108.5C2972 1107.2 2891 1105.7 2810.7 1104.2C2730.6 1102.7 2651.7 1101.1 2572.7 1099.6C2493.9 1098 2415 1096.5 2335.4 1095C2255.8 1093.5 2174.2 1092.1 2091.6 1090.9C2081.3 1090.7 2071.1 1090.6 2060.7 1090.4L2029.3 1090L1966.5 1089.1C1945.7 1088.8 1924.4 1088.5 1903.1 1088.3L1839.3 1087.5C1668.4 1085.4 1493.1 1083.8 1315.4 1082.6C1137.8 1081.4 949.901 1101.1 769.401 1100.6C588.801 1100.1 574.401 1052 234.201 1079.3C71.0012 1092.4 -128.299 1079.6 -309.199 1080C-490.099 1080.4 -670.699 1081 -850.999 1081.7C-1211.5 1083.1 -1570.4 1085 -1928.4 1087C-2107.3 1088.1 -2286.2 1089.1 -2464.8 1090.2L-3000.8 1093.5C-3179.6 1094.6 -3358.4 1095.7 -3537.9 1096.7L-4077 1099.7C-4257.2 1100.7 -4437.8 1101.7 -4620.1 1102.6C-4802.3 1103.5 -4986.3 1104.2 -5172.3 1104.6C-5218.9 1104.7 -5265.4 1104.8 -5312.2 1104.8C-5335.6 1104.8 -5359 1104.8 -5382.4 1104.9C-5405.8 1104.9 -5429.2 1104.9 -5452.7 1104.9H-5523.2L-5593.8 1104.8C-5617.4 1104.8 -5640.9 1104.7 -5664.4 1104.7L-5735.1 1104.5C-5829.4 1104.2 -5923.7 1103.8 -6017.7 1103.2C-6041.3 1103.1 -6064.6 1102.9 -6088 1102.7C-6111.4 1102.5 -6134.9 1102.4 -6158.2 1102.2C-6204.7 1101.8 -6251.4 1101.4 -6297.6 1100.9L-6366.7 1100.2L-6401.2 1099.8L-6435.3 1099.4C-6458.1 1099.1 -6480.7 1098.8 -6502.7 1098.5C-6524.9 1098.2 -6546.1 1097.7 -6567.3 1097.3C-6577.7 1097.1 -6588.3 1096.9 -6598.5 1096.6C-6608.6 1096.4 -6618.6 1096.1 -6628.6 1095.9C-6648.3 1095.4 -6667.9 1094.9 -6686.4 1094.3C-6705 1093.7 -6723 1093.1 -6740.9 1092.5C-6758.6 1091.9 -6775.8 1091.2 -6792.9 1090.6C-6801.4 1090.3 -6810.1 1090 -6818.5 1089.7C-6821 1089.6 -6823.7 1089.5 -6826.4 1089.4C-6832.1 1089.2 -6838 1089 -6843.8 1088.8C-6860.4 1088.2 -6877.8 1087.6 -6894.5 1087C-6911.3 1086.4 -6928.6 1085.9 -6946.2 1085.3L-6972.6 1084.5C-6981.4 1084.2 -6990.3 1084 -6999.5 1083.7C-7036.2 1082.7 -7073.4 1081.8 -7110.3 1080.9L-7164.3 1079.4L-7191.3 1078.7L-7217.4 1077.9L-7269.6 1076.3L-7320.1 1074.7L-7345.4 1073.9C-7353.7 1073.6 -7361.6 1073.3 -7369.7 1073.1L-7418.3 1071.4C-7434.4 1070.8 -7449.6 1070.2 -7465.2 1069.7L-7500.2 1068.4L-7511.4 1067.9C-7540.9 1066.7 -7571.7 1065.5 -7599.5 1064.2C-7713.9 1059.3 -7815.8 1054 -7905.6 1048.5C-7995.3 1043 -8073.7 1037.3 -8142 1031.4C-8210.2 1025.5 -8268.9 1019.6 -8320.3 1013.5L-8357.1 1008.9L-8390.7 1004.3C-8402.4 1002.8 -8411.9 1001.2 -8422.1 999.698C-8431.9 998.198 -8442.7 996.598 -8451.1 995.098L-8477.8 990.498C-8486.1 988.898 -8493.5 987.398 -8501.5 985.798L-8513.2 983.498L-8523.6 981.198L-8543.3 976.398Z" fill="#D1C2F9"/>
</g>
</g>
<path d="M1593.3 857.5C1592.9 895.5 1589.9 933.8 1582.1 971.1C1577.3 993.6 1570.9 1016 1561.3 1037C1545.5 1072.3 1518.3 1106.7 1479.6 1117.3C1457.1 1123.2 1433.9 1124.6 1410.9 1125.5C1365.1 1126.6 1319.7 1124.1 1274.1 1122.3C1239.9 1120.5 1205.6 1120 1171.6 1114.9C1166.4 1113.8 1155.4 1112.7 1154.1 1107C1153.6 1105.3 1154.7 1102.9 1156 1102C1162.8 1096.8 1187.9 1095.7 1197.4 1094.9C1258.4 1090.8 1340.8 1086.8 1401.9 1082.6C1408.5 1082 1415.9 1081.6 1422 1080.6C1421.2 1078.7 1420.8 1085.4 1422.1 1084.4C1422.3 1084.5 1422.2 1084.4 1422.2 1084.4C1420.1 1084.1 1418 1084.2 1415.8 1084.1C1260.7 1086.7 1099 1095.3 943.801 1101.6L852.801 1105.7C921.501 1102.4 1246.7 1086.4 1307.6 1083.8C1341.7 1082.3 1375.9 1080.8 1410 1079.9C1414.2 1079.9 1418.5 1079.6 1422.8 1080C1423 1080 1423.1 1080 1423.6 1080.2C1425.3 1079.3 1424.7 1086.4 1423.7 1084.5C1422.2 1085.1 1420.7 1085.2 1419.2 1085.5C1413.5 1086.3 1407.8 1086.8 1402.1 1087.4C1341.6 1093.2 1281.1 1098 1220.5 1102.1C1213.7 1102.5 1193.2 1103.9 1186.5 1104.3C1179.1 1104.9 1171.7 1105.4 1164.5 1106.8C1163.7 1107 1162.8 1107.2 1162.1 1107.4C1161.7 1107.5 1161.4 1107.6 1161.1 1107.7C1160.8 1107.8 1160.6 1107.9 1160.7 1107.9C1160.7 1107.9 1160.9 1107.7 1161.1 1107.3C1161.3 1106.9 1161.6 1106 1161.4 1105.3C1161.2 1104.6 1161 1104.3 1160.9 1104.2C1160.8 1104.1 1160.8 1104.1 1160.8 1104.1C1161 1104.3 1161.7 1104.7 1162.4 1105C1169.2 1107.6 1176.5 1108.9 1183.7 1110.3C1273 1125.9 1365.5 1126.1 1454.9 1111.8C1465.8 1109.8 1476.6 1107.5 1486.7 1103.4C1536.8 1080.7 1559.7 1024.9 1573.3 974.8C1577.5 958.5 1581.1 941.6 1583.9 925C1585.2 918.2 1586.3 909.4 1587.4 902.6C1589.5 887.6 1591.2 872.5 1592.7 857.4C1592.9 857.5 1593.3 857.5 1593.3 857.5Z" fill="#D1C2F9"/>
</g>
</g>
<defs>
<clipPath id="clip0_857_24346">
<rect width="1440" height="1144" fill="white"/>
</clipPath>
</defs>
</svg>
