<svg width="15" height="11" viewBox="0 0 15 11" fill="none" xmlns="http://www.w3.org/2000/svg">
<path d="M7.40039 0.100098C9.20039 0.100098 11.0004 0.100098 12.8004 0.100098C13.7004 0.100098 14.3004 0.700098 14.3004 1.6001C14.3004 4.1001 14.3004 6.6001 14.3004 9.1001C14.3004 10.0001 13.7004 10.6001 12.7004 10.6001C11.4004 10.6001 10.1004 10.6001 8.80035 10.6001C6.60035 10.6001 4.40038 10.6001 2.20038 10.6001C1.90038 10.6001 1.60035 10.6 1.30035 10.5C0.800354 10.3 0.500391 9.8999 0.400391 9.3999C0.400391 9.1999 0.400391 9.00005 0.400391 8.80005C0.400391 6.60005 0.400391 4.39995 0.400391 2.19995C0.400391 1.79995 0.400342 1.4 0.600342 1C0.800342 0.5 1.20038 0.299951 1.70038 0.199951C1.90038 0.199951 2.10035 0.199951 2.30035 0.199951C4.00035 0.0999512 5.70039 0.100098 7.40039 0.100098ZM7.40039 1.1001C5.70039 1.1001 3.90038 1.1001 2.20038 1.1001C2.10038 1.1001 2.00039 1.1001 1.90039 1.1001C1.70039 1.1001 1.60037 1.3 1.50037 1.5C1.40037 1.7 1.50034 1.7999 1.60034 1.8999C2.00034 2.1999 2.40035 2.5999 2.80035 2.8999C4.20035 4.0999 5.70034 5.3001 7.10034 6.6001C7.30034 6.8001 7.50038 6.8001 7.70038 6.6001C8.30038 6.1001 8.90037 5.6001 9.50037 5.1001C10.7004 4.1001 12.0004 3 13.2004 2C13.4004 1.8 13.4004 1.5999 13.2004 1.3999C13.1004 1.2999 12.9004 1.19995 12.7004 1.19995C10.9004 1.09995 9.20039 1.1001 7.40039 1.1001ZM7.40039 9.6001C9.20039 9.6001 11.0004 9.6001 12.8004 9.6001C12.9004 9.6001 13.0003 9.6 13.1003 9.5C13.3003 9.4 13.5004 9.00005 13.3004 8.80005C12.2004 7.90005 11.1004 6.9 10.0004 6C9.90037 5.9 9.80038 5.9 9.70038 6C9.20038 6.4 8.70038 6.90005 8.20038 7.30005C7.70038 7.70005 7.40039 7.60005 6.90039 7.30005C6.40039 6.90005 5.90039 6.4 5.40039 6C5.30039 5.9 5.20034 5.9 5.10034 6C4.00034 7 2.80038 7.8999 1.70038 8.8999L1.60034 9C1.60034 9.2 1.80037 9.5 2.00037 9.5C2.10037 9.5 2.20035 9.5 2.30035 9.5C3.90035 9.6 5.60039 9.6001 7.40039 9.6001ZM4.30035 5.30005C3.30035 4.50005 2.40039 3.6999 1.40039 2.8999C1.40039 4.4999 1.40039 6.09995 1.40039 7.69995C2.40039 6.89995 3.30035 6.10005 4.30035 5.30005ZM13.3004 7.80005C13.3004 6.20005 13.3004 4.6 13.3004 3C12.3004 3.8 11.4004 4.5999 10.5004 5.3999C11.4004 6.0999 12.4004 6.90005 13.3004 7.80005Z" fill="white"/>
</svg>
