<svg width="118" height="36" viewBox="0 0 118 36" fill="none" xmlns="http://www.w3.org/2000/svg">
<path d="M117 31.5C117 33.3 115.5 34.8 113.7 34.8H4.50024C2.70024 34.8 1.2002 33.3 1.2002 31.5V5C1.2002 3.2 2.70024 1.69995 4.50024 1.69995H113.7C115.5 1.69995 117 3.2 117 5V31.5Z" fill="white"/>
<path d="M113.7 35.7H4.50037C2.20037 35.7 0.400391 33.9001 0.400391 31.6001V5C0.400391 2.7 2.20037 0.899902 4.50037 0.899902H113.7C116 0.899902 117.8 2.7 117.8 5V31.6001C117.8 33.8001 115.9 35.7 113.7 35.7Z" fill="#A6A5A5"/>
<path d="M117 31.5C117 33.3 115.5 34.8 113.7 34.8H4.50024C2.70024 34.8 1.2002 33.3 1.2002 31.5V5C1.2002 3.2 2.70024 1.69995 4.50024 1.69995H113.7C115.5 1.69995 117 3.2 117 5V31.5Z" fill="#010101"/>
<path opacity="0.1" d="M113.7 0.800049H55.2002L78.1002 35.6001H113.7C116 35.6001 117.8 33.8 117.8 31.5V5C117.8 2.7 116 0.800049 113.7 0.800049Z" fill="white"/>
<path d="M27.4004 18.6001C27.4004 15.9001 29.6005 14.5 29.8005 14.5C28.5005 12.6 26.5005 12.4 25.8005 12.3C24.1005 12.1 22.5004 13.3 21.6004 13.3C20.7004 13.3 19.4004 12.3 18.0004 12.3C16.2004 12.3 14.5004 13.4 13.5004 15C11.6004 18.3 13.0004 23.1999 14.9004 25.8999C15.8004 27.1999 16.9005 28.7001 18.3005 28.6001C19.7005 28.5001 20.2004 27.7 21.9004 27.7C23.6004 27.7 24.0004 28.6 25.5004 28.5C27.0004 28.5 27.9005 27.2 28.8005 25.8C29.9005 24.3 30.3005 22.8 30.3005 22.7C30.3005 22.9 27.4004 21.8001 27.4004 18.6001ZM24.7004 10.5C25.4004 9.6 26.0005 8.3 25.8005 7C24.7005 7 23.4004 7.69995 22.6004 8.69995C21.9004 9.49995 21.3004 10.8001 21.5004 12.1001C22.7004 12.1001 23.9004 11.4 24.7004 10.5Z" fill="white"/>
<path d="M47.4003 27.6001H45.5002L44.4003 24.3H40.7002L39.7002 27.6001H37.8003L41.4003 16.3H43.7002L47.4003 27.6001ZM44.1002 22.8L43.1002 19.8C43.0002 19.5 42.8002 18.8 42.5002 17.7C42.4002 18.2 42.2002 18.9 42.0002 19.8L41.1002 22.8H44.1002ZM56.8003 23.3999C56.8003 24.7999 56.4002 25.9 55.7002 26.7C55.0002 27.4 54.2002 27.8 53.2002 27.8C52.1002 27.8 51.3003 27.4001 50.9003 26.6001V30.8999H49.1002V22.1001C49.1002 21.2001 49.1002 20.2999 49.0002 19.3999H50.6002L50.7002 20.7C51.3002 19.7 52.2002 19.2 53.5002 19.2C54.5002 19.2 55.3003 19.6 55.9003 20.3C56.5003 21.1 56.8003 22.0999 56.8003 23.3999ZM55.0002 23.3999C55.0002 22.5999 54.8002 21.8999 54.5002 21.3999C54.1002 20.8999 53.6003 20.6001 52.9003 20.6001C52.5003 20.6001 52.0002 20.7 51.7002 21C51.3002 21.3 51.1002 21.7 51.0002 22.2C51.0002 22.4 50.9003 22.6 50.9003 22.8V24.2C50.9003 24.8 51.1003 25.3 51.4003 25.7C51.8003 26.1 52.2003 26.3 52.8003 26.3C53.5003 26.3 54.0003 26 54.4003 25.5C54.8003 25 55.0002 24.2999 55.0002 23.3999ZM66.2002 23.3999C66.2002 24.7999 65.8002 25.9 65.1002 26.7C64.4002 27.4 63.6002 27.8 62.6002 27.8C61.5002 27.8 60.7003 27.4001 60.3003 26.6001V30.8999H58.5002V22.1001C58.5002 21.2001 58.5003 20.2999 58.4003 19.3999H60.0002L60.1002 20.7C60.7002 19.7 61.6003 19.2 62.9003 19.2C63.9003 19.2 64.7003 19.6 65.3003 20.3C65.9003 21.1 66.2002 22.0999 66.2002 23.3999ZM64.3003 23.3999C64.3003 22.5999 64.1003 21.8999 63.8003 21.3999C63.4003 20.8999 62.9002 20.6001 62.2002 20.6001C61.8002 20.6001 61.3002 20.7 61.0002 21C60.6002 21.3 60.4003 21.7 60.3003 22.2C60.2003 22.4 60.2002 22.6 60.2002 22.8V24.2C60.2002 24.8 60.4002 25.3 60.7002 25.7C61.1002 26.1 61.5002 26.3 62.1002 26.3C62.8002 26.3 63.3002 26 63.7002 25.5C64.2002 25 64.3003 24.2999 64.3003 23.3999ZM76.7002 24.3999C76.7002 25.3999 76.4002 26.1 75.7002 26.8C75.0002 27.5 73.9002 27.8 72.6002 27.8C71.4002 27.8 70.4002 27.6001 69.7002 27.1001L70.1002 25.6001C70.9002 26.1001 71.8002 26.3 72.7002 26.3C73.4002 26.3 73.9003 26.1 74.3003 25.8C74.7003 25.5 74.9003 25.1001 74.9003 24.6001C74.9003 24.1001 74.7003 23.7999 74.4003 23.3999C74.1003 23.0999 73.6003 22.8 72.8003 22.5C70.8003 21.8 69.8003 20.7 69.8003 19.3C69.8003 18.4 70.2003 17.6 70.9003 17C71.6003 16.4 72.5002 16.1001 73.7002 16.1001C74.7002 16.1001 75.6003 16.3001 76.3003 16.6001L75.8003 18.1001C75.2003 17.8001 74.4002 17.6001 73.6002 17.6001C73.0002 17.6001 72.5002 17.8001 72.1002 18.1001C71.8002 18.4001 71.6002 18.7001 71.6002 19.1001C71.6002 19.5001 71.8002 19.9 72.1002 20.2C72.4002 20.5 73.0002 20.8001 73.7002 21.1001C74.7002 21.5001 75.4003 22 75.9003 22.5C76.5003 22.9 76.7002 23.5999 76.7002 24.3999ZM82.7002 20.7H80.7002V24.7C80.7002 25.7 81.1003 26.2 81.8003 26.2C82.1003 26.2 82.4002 26.2001 82.6002 26.1001L82.7002 27.5C82.3002 27.6 81.9003 27.7 81.3003 27.7C80.6003 27.7 80.0002 27.5 79.6002 27C79.2002 26.6 79.0002 25.8 79.0002 24.8V20.7H77.8003V19.3H79.0002V17.8L80.8003 17.3V19.3H82.8003V20.7H82.7002ZM91.7002 23.3999C91.7002 24.6999 91.3002 25.7 90.6002 26.5C89.8002 27.3 88.9002 27.7 87.6002 27.7C86.4002 27.7 85.4002 27.3 84.7002 26.5C84.0002 25.7 83.6002 24.7 83.6002 23.5C83.6002 22.2 84.0002 21.1999 84.7002 20.3999C85.4002 19.5999 86.4002 19.2 87.7002 19.2C88.9002 19.2 89.9002 19.5999 90.6002 20.3999C91.4002 21.1999 91.7002 22.1999 91.7002 23.3999ZM89.9003 23.3999C89.9003 22.6999 89.7003 22 89.4003 21.5C89.0003 20.9 88.5003 20.5 87.8003 20.5C87.1003 20.5 86.5002 20.8 86.1002 21.5C85.8002 22 85.6002 22.7 85.6002 23.5C85.6002 24.2 85.8002 24.8999 86.1002 25.3999C86.5002 25.9999 87.0002 26.3999 87.7002 26.3999C88.4002 26.3999 88.9003 26.0999 89.3003 25.3999C89.7003 24.7999 89.9003 24.1999 89.9003 23.3999ZM97.6002 21C97.4002 21 97.2002 20.8999 97.0002 20.8999C96.4002 20.8999 95.9002 21.1001 95.5002 21.6001C95.2002 22.0001 95.0002 22.6 95.0002 23.2V27.5H93.2002V21.8999C93.2002 20.9999 93.2002 20.2 93.1002 19.3H94.7002L94.8003 20.8999H94.9003C95.1003 20.3999 95.4003 19.9001 95.8003 19.6001C96.2003 19.3001 96.6002 19.2 97.1002 19.2C97.3002 19.2 97.4002 19.2 97.6002 19.2V21ZM105.8 23.1001C105.8 23.4001 105.8 23.6999 105.7 23.8999H100.3C100.3 24.6999 100.6 25.3 101.1 25.8C101.6 26.2 102.2 26.3999 102.9 26.3999C103.7 26.3999 104.4 26.3 105.1 26L105.4 27.3C104.6 27.6 103.7 27.8 102.7 27.8C101.4 27.8 100.4 27.4 99.7002 26.7C99.0002 26 98.6002 25 98.6002 23.7C98.6002 22.5 98.9002 21.4001 99.6002 20.6001C100.3 19.7001 101.3 19.3 102.5 19.3C103.7 19.3 104.6 19.7001 105.2 20.6001C105.5 21.2001 105.8 22.1001 105.8 23.1001ZM104 22.6001C104 22.1001 103.9 21.6 103.6 21.2C103.3 20.7 102.8 20.3999 102.2 20.3999C101.6 20.3999 101.1 20.6001 100.8 21.1001C100.5 21.5001 100.3 22 100.3 22.5L104 22.6001Z" fill="white"/>
<path d="M40.2003 13.2C39.7003 13.2 39.3004 13.2001 38.9004 13.1001V7.6001C39.4004 7.5001 39.9004 7.5 40.4004 7.5C42.5004 7.5 43.4004 8.49995 43.4004 10.2C43.5004 12.2 42.4003 13.2 40.2003 13.2ZM40.5004 8.19995C40.2004 8.19995 40.0004 8.20005 39.8004 8.30005V12.5C39.9004 12.5 40.1004 12.5 40.4004 12.5C41.8004 12.5 42.5004 11.7 42.5004 10.3C42.6004 9.00005 41.9004 8.19995 40.5004 8.19995ZM46.5004 13.2C45.3004 13.2 44.6003 12.3001 44.6003 11.1001C44.6003 9.9001 45.4003 9 46.6003 9C47.8003 9 48.5004 9.8001 48.5004 11.1001C48.5004 12.4001 47.7004 13.2 46.5004 13.2ZM46.5004 9.69995C45.9004 9.69995 45.4004 10.3001 45.4004 11.1001C45.4004 11.9001 45.8004 12.5 46.4004 12.5C47.0004 12.5 47.4004 11.9001 47.4004 11.1001C47.6004 10.3001 47.2004 9.69995 46.5004 9.69995ZM55.2003 9.1001L53.9004 13.1001H53.1003L52.6003 11.3999C52.5003 10.9999 52.4004 10.5001 52.3004 10.1001C52.2004 10.5001 52.1004 10.9999 52.0004 11.3999L51.4004 13.1001H50.6003L49.4004 9.1001H50.3004L50.8004 11C50.9004 11.5 51.0003 11.9 51.1003 12.3C51.2003 12 51.3004 11.5 51.4004 11L52.0004 9.1001H52.7003L53.2003 11C53.3003 11.5 53.4004 11.9 53.5004 12.3C53.6004 11.9 53.6004 11.4 53.8004 11L54.3004 9.1001H55.2003ZM59.8004 13.2H58.9004V10.8999C58.9004 10.1999 58.6003 9.80005 58.1003 9.80005C57.6003 9.80005 57.2003 10.3 57.2003 10.8V13.2H56.3004V10.3C56.3004 9.90005 56.3004 9.59995 56.3004 9.19995H57.1003V9.80005C57.3003 9.40005 57.8004 9.1001 58.4004 9.1001C59.2004 9.1001 59.8004 9.70005 59.8004 10.8V13.2ZM62.3004 13.2H61.4004V7.30005H62.3004V13.2ZM65.5004 13.2C64.3004 13.2 63.6003 12.3001 63.6003 11.1001C63.6003 9.9001 64.4003 9 65.6003 9C66.8003 9 67.5004 9.8001 67.5004 11.1001C67.5004 12.4001 66.7004 13.2 65.5004 13.2ZM65.6003 9.69995C65.0003 9.69995 64.5004 10.3001 64.5004 11.1001C64.5004 11.9001 64.9004 12.5 65.5004 12.5C66.1004 12.5 66.5004 11.9001 66.5004 11.1001C66.6004 10.3001 66.2003 9.69995 65.6003 9.69995ZM71.0004 13.2L70.9004 12.7C70.6004 13.1 70.2003 13.3 69.7003 13.3C69.0003 13.3 68.5004 12.8001 68.5004 12.1001C68.5004 11.1001 69.4004 10.6001 70.8004 10.6001V10.5C70.8004 10 70.5004 9.69995 70.0004 9.69995C69.6004 9.69995 69.3004 9.8 69.0004 10L68.8004 9.3999C69.2004 9.1999 69.6003 9.1001 70.2003 9.1001C71.2003 9.1001 71.8004 9.70005 71.8004 10.8V12.3C71.8004 12.7 71.8004 13 71.9004 13.3L71.0004 13.2ZM70.9004 11.2C69.9004 11.2 69.4004 11.4 69.4004 12C69.4004 12.4 69.7004 12.6001 70.0004 12.6001C70.5004 12.6001 70.9004 12.3 70.9004 11.8V11.2ZM76.1003 13.2V12.6001C75.8003 13.1001 75.4004 13.3 74.8004 13.3C73.8004 13.3 73.1003 12.4 73.1003 11.3C73.1003 10 73.8004 9.19995 74.9004 9.19995C75.4004 9.19995 75.8004 9.39995 76.0004 9.69995V7.3999H76.9004V12.2C76.9004 12.6 76.9004 13 76.9004 13.3H76.1003V13.2ZM76.0004 10.8C76.0004 10.2 75.6003 9.80005 75.1003 9.80005C74.4003 9.80005 74.0004 10.4 74.0004 11.2C74.0004 12 74.4004 12.6001 75.0004 12.6001C75.6004 12.6001 76.0004 12.1 76.0004 11.5V10.8ZM82.5004 13.2C81.3004 13.2 80.6003 12.3001 80.6003 11.1001C80.6003 9.9001 81.4003 9 82.6003 9C83.8003 9 84.5004 9.8001 84.5004 11.1001C84.5004 12.4001 83.7004 13.2 82.5004 13.2ZM82.6003 9.69995C82.0003 9.69995 81.5004 10.3001 81.5004 11.1001C81.5004 11.9001 81.9004 12.5 82.5004 12.5C83.1004 12.5 83.5004 11.9001 83.5004 11.1001C83.6004 10.3001 83.2003 9.69995 82.6003 9.69995ZM89.3004 13.2H88.4004V10.8999C88.4004 10.1999 88.1003 9.80005 87.6003 9.80005C87.1003 9.80005 86.7003 10.3 86.7003 10.8V13.2H85.8004V10.3C85.8004 9.90005 85.8004 9.59995 85.8004 9.19995H86.6003V9.80005C86.8003 9.40005 87.3004 9.1001 87.9004 9.1001C88.7004 9.1001 89.3004 9.70005 89.3004 10.8V13.2ZM95.4004 9.80005H94.4004V11.7C94.4004 12.2 94.6004 12.3999 94.9004 12.3999C95.1004 12.3999 95.2004 12.3999 95.3004 12.3999V13.1001C95.1004 13.2001 94.9003 13.2 94.6003 13.2C93.9003 13.2 93.5004 12.8 93.5004 11.8V9.80005H92.9004V9.1001H93.5004V8.3999L94.4004 8.1001V9.1001H95.4004V9.80005ZM100.1 13.2H99.2003V10.8999C99.2003 10.1999 98.9004 9.80005 98.4004 9.80005C97.9004 9.80005 97.5004 10.1 97.5004 10.7V13.1001H96.6003V7.19995H97.5004V9.6001C97.8004 9.2001 98.2003 8.8999 98.7003 8.8999C99.5003 8.8999 100.1 9.6001 100.1 10.6001V13.2ZM104.9 11.3999H102.2C102.2 12.1999 102.7 12.6001 103.5 12.6001C103.9 12.6001 104.3 12.4999 104.6 12.3999L104.7 13C104.3 13.2 103.9 13.2 103.4 13.2C102.1 13.2 101.4 12.4 101.4 11.2C101.4 9.99995 102.2 9 103.3 9C104.3 9 105 9.7999 105 10.8999C105 11.0999 104.9 11.1999 104.9 11.3999ZM104.1 10.7C104.1 10.1 103.8 9.6001 103.2 9.6001C102.7 9.6001 102.3 9.99995 102.2 10.7H104.1Z" fill="white"/>
</svg>
