<svg width="118" height="36" viewBox="0 0 118 36" fill="none" xmlns="http://www.w3.org/2000/svg">
<path d="M117 31.2C117 33 115.5 34.5 113.7 34.5H4.50024C2.70024 34.5 1.2002 33 1.2002 31.2V4.6001C1.2002 2.8001 2.70024 1.30005 4.50024 1.30005H113.7C115.5 1.30005 117 2.8001 117 4.6001V31.2Z" fill="white"/>
<path d="M113.7 35.3H4.50037C2.20037 35.3 0.400391 33.5 0.400391 31.2V4.6001C0.400391 2.3001 2.20037 0.5 4.50037 0.5H113.7C116 0.5 117.8 2.3001 117.8 4.6001V31.2C117.8 33.5 115.9 35.3 113.7 35.3Z" fill="#A6A5A5"/>
<path d="M117 31.2C117 33 115.5 34.5 113.7 34.5H4.50024C2.70024 34.5 1.2002 33 1.2002 31.2V4.6001C1.2002 2.8001 2.70024 1.30005 4.50024 1.30005H113.7C115.5 1.30005 117 2.8001 117 4.6001V31.2Z" fill="#010101"/>
<path opacity="0.1" d="M113.7 0.5H55.2002L78.1002 35.3H113.7C116 35.3 117.8 33.5 117.8 31.2V4.6001C117.8 2.4001 116 0.5 113.7 0.5Z" fill="white"/>
<path d="M41.8002 11C41.8002 11.7 41.6001 12.3 41.2001 12.7C40.7001 13.2 40.1002 13.5 39.3002 13.5C38.5002 13.5 37.9001 13.2 37.4001 12.7C36.9001 12.2 36.6001 11.6 36.6001 10.8C36.6001 10 36.9001 9.3999 37.4001 8.8999C37.9001 8.3999 38.5002 8.1001 39.3002 8.1001C39.6002 8.1001 40.0002 8.1999 40.3002 8.3999C40.6002 8.5999 40.9001 8.7 41.1001 9L40.7001 9.3999C40.4001 8.9999 39.9002 8.80005 39.3002 8.80005C38.8002 8.80005 38.3001 8.9999 37.9001 9.3999C37.5001 9.6999 37.3002 10.3 37.3002 10.8C37.3002 11.3 37.5001 11.9 37.9001 12.2C38.3001 12.5 38.8002 12.8 39.3002 12.8C39.9002 12.8 40.3001 12.6 40.7001 12.2C41.0001 11.9 41.1001 11.6 41.1001 11.2H39.2001V10.5H41.7001V11H41.8002ZM45.7001 8.8999H43.4001V10.5H45.5001V11.1001H43.4001V12.7H45.7001V13.3999H42.7001V8.30005H45.7001V8.8999ZM48.6001 13.3999H47.9001V8.8999H46.5001V8.30005H50.1001V8.8999H48.7001V13.3999H48.6001ZM52.5001 13.3999V8.30005H53.2001V13.3999H52.5001ZM56.0001 13.3999H55.3002V8.8999H53.9001V8.30005H57.4001V8.8999H56.0001V13.3999ZM64.1001 12.8C63.6001 13.3 63.0001 13.6001 62.2001 13.6001C61.4001 13.6001 60.8002 13.3 60.3002 12.8C59.8002 12.3 59.5001 11.6999 59.5001 10.8999C59.5001 10.0999 59.8002 9.5 60.3002 9C60.8002 8.5 61.4001 8.19995 62.2001 8.19995C63.0001 8.19995 63.6001 8.5 64.1001 9C64.6001 9.5 64.9001 10.0999 64.9001 10.8999C64.9001 11.5999 64.6001 12.2 64.1001 12.8ZM60.9001 12.3C61.2001 12.6 61.8002 12.8999 62.3002 12.8999C62.8002 12.8999 63.3001 12.7 63.7001 12.3C64.0001 12 64.3002 11.3999 64.3002 10.8999C64.3002 10.2999 64.1001 9.8 63.7001 9.5C63.4001 9.2 62.8002 8.8999 62.3002 8.8999C61.8002 8.8999 61.3001 9.1 60.9001 9.5C60.6001 9.8 60.3002 10.3999 60.3002 10.8999C60.3002 11.4999 60.5001 12 60.9001 12.3ZM65.8002 13.3999V8.30005H66.6001L69.1001 12.3V8.30005H69.8002V13.3999H69.1001L66.5001 9.19995V13.3999H65.8002Z" fill="white"/>
<path d="M59.4 19.8C57.4 19.8 55.7 21.3 55.7 23.5C55.7 25.5 57.3 27.2 59.4 27.2C61.5 27.2 63.1 25.7 63.1 23.5C63.1 21.3 61.5 19.8 59.4 19.8ZM59.4 25.6001C58.3 25.6001 57.4 24.6999 57.4 23.3999C57.4 22.0999 58.3 21.2 59.4 21.2C60.5 21.2 61.4 22.0999 61.4 23.3999C61.5 24.6999 60.6 25.6001 59.4 25.6001ZM51.5 19.8C49.5 19.8 47.8 21.3 47.8 23.5C47.8 25.5 49.4 27.2 51.5 27.2C53.6 27.2 55.2 25.7 55.2 23.5C55.2 21.3 53.6 19.8 51.5 19.8ZM51.5 25.6001C50.4 25.6001 49.5 24.6999 49.5 23.3999C49.5 22.0999 50.4 21.2 51.5 21.2C52.6 21.2 53.5 22.0999 53.5 23.3999C53.6 24.6999 52.6 25.6001 51.5 25.6001ZM42.1 20.8999V22.3999H45.8C45.7 23.2999 45.4 23.8999 44.9 24.3999C44.4 24.8999 43.5 25.5 42.1 25.5C39.8 25.5 38.1 23.6999 38.1 21.3999C38.1 19.0999 39.9 17.3 42.1 17.3C43.3 17.3 44.2 17.7999 44.9 18.3999L46 17.3C45.1 16.4 43.9 15.8 42.2 15.8C39.1 15.8 36.5 18.3999 36.5 21.3999C36.5 24.4999 39.1 27 42.2 27C43.9 27 45.1 26.4999 46.1 25.3999C47.1 24.3999 47.5 22.9 47.5 21.8C47.5 21.5 47.5 21.0999 47.4 20.8999H42.1ZM80.7 22.1001C80.4 21.2001 79.5 19.8 77.6 19.8C75.7 19.8 74.2 21.2 74.2 23.5C74.2 25.5 75.7 27.2 77.8 27.2C79.4 27.2 80.4 26.2001 80.8 25.6001L79.6 24.7C79.2 25.3 78.7 25.7 77.8 25.7C76.9 25.7 76.4 25.4001 76 24.6001L80.8 22.6001L80.7 22.1001ZM75.8 23.3C75.8 21.9 76.9 21.2 77.7 21.2C78.3 21.2 78.9 21.5 79.1 22L75.8 23.3ZM71.8 26.8H73.4V16.2H71.8V26.8ZM69.2 20.6001C68.8 20.2001 68.1 19.7 67.2 19.7C65.4 19.7 63.7 21.2999 63.7 23.3999C63.7 25.3999 65.3 27 67.2 27C68.1 27 68.7 26.6001 69.1 26.1001H69.2V26.6001C69.2 28.0001 68.4 28.7 67.2 28.7C66.3 28.7 65.6 27.9999 65.4 27.3999L64 28C64.4 28.9 65.4 30.1001 67.2 30.1001C69.1 30.1001 70.6 28.9999 70.6 26.3999V19.8999H69.1V20.6001H69.2ZM67.4 25.6001C66.3 25.6001 65.4 24.6999 65.4 23.3999C65.4 22.0999 66.3 21.2 67.4 21.2C68.5 21.2 69.4 22.0999 69.4 23.3999C69.4 24.6999 68.5 25.6001 67.4 25.6001ZM88.1 16.2H84.3V26.8H85.9V22.8H88.1C89.9 22.8 91.6 21.5 91.6 19.5C91.6 17.4 89.9 16.2 88.1 16.2ZM88.2 21.3H85.9V17.6001H88.2C89.4 17.6001 90.1 18.5999 90.1 19.3999C90 20.2999 89.3 21.3 88.2 21.3ZM98 19.7C96.8 19.7 95.6 20.2 95.2 21.3L96.6 21.8999C96.9 21.2999 97.5 21.1001 98 21.1001C98.9 21.1001 99.6 21.6 99.7 22.5V22.6001C99.4 22.4001 98.8 22.2 98.1 22.2C96.6 22.2 95 23.1001 95 24.6001C95 26.0001 96.3 27 97.6 27C98.7 27 99.2 26.5 99.6 26H99.7V26.8999H101.2V22.8C101.2 20.8 99.8 19.7 98 19.7ZM97.8 25.6001C97.3 25.6001 96.5 25.3 96.5 24.7C96.5 23.8 97.4 23.6001 98.2 23.6001C98.9 23.6001 99.2 23.7999 99.6 23.8999C99.5 24.8999 98.7 25.6001 97.8 25.6001ZM106.7 20L104.9 24.6001H104.8L102.9 20H101.2L104 26.5L102.4 30.1001H104L108.3 20.1001H106.7V20ZM92.5 26.8H94.1V16.2H92.5V26.8Z" fill="white"/>
<path d="M13.0002 7.6001C12.7002 7.9001 12.7002 8.30005 12.7002 8.80005V27.6001C12.7002 28.1001 12.9002 28.5 13.1002 28.8L13.2002 28.8999L23.7002 18.3999V18.2L13.0002 7.6001Z" fill="url(#paint0_linear_919_15)"/>
<path d="M27.1001 21.8999L23.6001 18.3999V18.1001L27.1001 14.6001L27.2001 14.7L31.4001 17.1001C32.6001 17.8001 32.6001 18.9001 31.4001 19.6001L27.1001 21.8999Z" fill="url(#paint1_linear_919_15)"/>
<path d="M27.2 21.8L23.6 18.2L13 28.8C13.4 29.2 14 29.1999 14.8 28.8999L27.2 21.8Z" fill="url(#paint2_linear_919_15)"/>
<path d="M27.2 14.7L14.8 7.60016C14 7.20016 13.4 7.30001 13 7.70001L23.6 18.2L27.2 14.7Z" fill="url(#paint3_linear_919_15)"/>
<defs>
<linearGradient id="paint0_linear_919_15" x1="18.1597" y1="7.5294" x2="18.1597" y2="28.702" gradientUnits="userSpaceOnUse">
<stop stop-color="#267CAF"/>
<stop offset="0.286" stop-color="#4A92B4"/>
<stop offset="0.767" stop-color="#79BCBA"/>
<stop offset="1" stop-color="#88CEBC"/>
</linearGradient>
<linearGradient id="paint1_linear_919_15" x1="29.11" y1="15.6703" x2="26.528" y2="21.5105" gradientUnits="userSpaceOnUse">
<stop stop-color="#F48879"/>
<stop offset="0.119" stop-color="#F5907A"/>
<stop offset="0.713" stop-color="#FBB777"/>
<stop offset="1" stop-color="#FDC874"/>
</linearGradient>
<linearGradient id="paint2_linear_919_15" x1="25.2697" y1="20.1106" x2="13.6514" y2="29.506" gradientUnits="userSpaceOnUse">
<stop stop-color="#EB413D"/>
<stop offset="0.167" stop-color="#D94452"/>
<stop offset="0.575" stop-color="#AF487A"/>
<stop offset="0.862" stop-color="#954B92"/>
<stop offset="1" stop-color="#894A9C"/>
</linearGradient>
<linearGradient id="paint3_linear_919_15" x1="14.476" y1="8.10359" x2="25.589" y2="16.5902" gradientUnits="userSpaceOnUse">
<stop stop-color="#54C0AC"/>
<stop offset="1" stop-color="#DDE79A"/>
</linearGradient>
</defs>
</svg>
