<svg width="1440" height="870" viewBox="0 0 1440 870" fill="none" xmlns="http://www.w3.org/2000/svg">
<g clip-path="url(#clip0_892_210)">
<mask id="mask0_892_210" style="mask-type:luminance" maskUnits="userSpaceOnUse" x="0" y="0" width="1440" height="1144">
<path d="M1440 0H0V1144H1440V0Z" fill="white"/>
</mask>
<g mask="url(#mask0_892_210)">
<mask id="mask1_892_210" style="mask-type:luminance" maskUnits="userSpaceOnUse" x="0" y="-536" width="1440" height="1358">
<path d="M1440 -536H0V822H1440V-536Z" fill="white"/>
</mask>
<g mask="url(#mask1_892_210)">
<path d="M1522.6 138.7V1080.6H-68.9004C-60.1004 719 -45.5004 288.2 -45.5004 33.5996H257.2L262.1 35.0996L277.7 39.8997L293.2 45.0996L308.5 50.6996C313.6 52.6996 318.6 54.6996 323.7 56.7996C333.7 60.9996 343.7 65.3996 353.4 70.1996C363.2 74.8996 372.8 80.0996 382.3 85.2996C391.8 90.5996 401.1 96.0996 410.5 101.6C419.8 107.1 429.2 112.6 438.6 117.8C448 123.1 457.7 127.9 467.4 132.3C468.6 132.9 469.8 133.5 471.1 134L474.8 135.6L482.2 138.8C484.7 139.9 487.2 140.8 489.7 141.8L497.2 144.6C517.4 151.9 538.2 157.7 559.2 161.9C580.2 166.2 601.5 169.1 622.9 171C644.3 172.9 665.7 173.6 687.2 173.6C708.6 173.6 730.1 172.6 751.5 171.2C772.9 169.8 794.3 167.7 815.6 165.3C858.3 160.4 900.7 153.8 943.1 146.6C964.3 142.9 985.4 139.2 1006.6 135.2L1070 123.4C1091.2 119.6 1112.3 115.6 1133.6 112.1L1197.4 101.5C1218.7 97.9996 1240.1 94.3997 1261.7 91.3997C1283.3 88.3997 1305 85.7996 1327 84.4996C1332.5 84.1996 1338 83.8996 1343.5 83.7996C1346.3 83.6996 1349 83.6996 1351.8 83.5996C1354.6 83.4996 1357.3 83.5996 1360.1 83.5996L1368.4 83.6996L1376.8 84.0996C1379.6 84.2996 1382.4 84.2996 1385.2 84.5996L1393.6 85.2996C1404.8 86.2996 1415.9 87.7997 1427 89.8997C1429.8 90.2997 1432.6 90.9996 1435.3 91.5996C1438.1 92.1996 1440.9 92.7997 1443.6 93.3997C1449.1 94.8997 1454.6 96.1997 1460.1 97.8997L1468.3 100.5L1472.4 101.8L1476.4 103.3C1479.1 104.3 1481.8 105.3 1484.4 106.5C1487 107.7 1489.5 109.2 1492 110.6C1493.2 111.4 1494.5 112.1 1495.7 113C1496.9 113.8 1498.1 114.7 1499.3 115.6C1501.6 117.4 1504 119.3 1506.1 121.3C1507.4 122.5 1509.2 124.2 1512.5 127.6C1515.2 130.5 1518.6 134.1 1522.6 138.7Z" fill="#F5F5F5"/>
</g>
<mask id="mask2_892_210" style="mask-type:luminance" maskUnits="userSpaceOnUse" x="0" y="-536" width="1440" height="3417">
<path d="M1440 -536H0V2880.5H1440V-536Z" fill="white"/>
</mask>
<g mask="url(#mask2_892_210)">
<g opacity="0.5">
<path d="M-67.5 8.30044C-22.7 5.20044 22.6 3.10046 67.4 4.70046C127.8 6.90046 188 14.9005 246.4 30.7005C282.8 40.4005 319.4 53.0004 353.4 69.1004C393.7 87.7004 430.2 113.4 471 130.9C476.9 133.3 483.7 136.2 489.6 138.3C633.1 190.4 795.7 166 943 142.9C1047.4 124.9 1156.5 104.3 1261.5 89.5005C1321.6 81.1005 1383.9 77.3005 1443.5 91.4005C1451.9 93.5005 1460 95.6004 1468.2 98.3004C1479.1 101.6 1490.1 106 1499.2 113C1515.4 125.1 1527.1 142.3 1543.1 154.6C1547.4 157.9 1551.8 161.1 1556.2 164.3L1562.6 169.4L1565.8 171.9L1568.9 174.5L1575.1 179.8C1582.7 186.7 1591.3 195 1598.2 202.6C1651.5 260.3 1683.4 334.3 1703.7 409.4C1711.2 437.6 1717.5 467.3 1722.2 496.1L1723.4 504.1L1725.8 520L1725 520.1C1708.8 410 1676 296.2 1599.3 212.5C1595.7 208.6 1591.9 204.8 1588.2 201.1L1582.4 195.6C1581.4 194.7 1580.5 193.8 1579.5 192.9L1576.5 190.3C1564.6 179.9 1552 169.7 1538.4 161.6C1521.7 152 1501.9 152.1 1483.4 149.4C1474.7 148 1466 145.7 1457.8 142.5C1427.9 132.2 1396.4 125 1364.9 119.6C1331 114 1297.1 110.4 1262.6 109.3C1177.1 106.2 1091.3 121.6 1007 134.6C832 162 644.4 201.5 473.7 134.9L469.9 133.4C468.7 132.9 467.4 132.3 466.2 131.8L458.8 128.6C451.6 125.5 444 121.7 436.9 118.2C394.2 95.9005 352 72.2004 305.6 58.8004C293.3 55.2004 286.3 53.5004 274.7 50.6004L259.1 47.4005L251.3 45.8004C242 44.3004 229.1 42.1004 219.8 41.1004L211.9 40.2005C206.6 39.7005 201.4 39.0004 196.1 38.8004C133.4 34.2004 69.4 41.4005 9.3 59.9005C-10.6 66.1005 -30.2 73.2004 -49 82.1004C-49.1 82.2004 -67.5 8.30044 -67.5 8.30044Z" fill="#D1C2F9"/>
</g>
</g>
<mask id="mask3_892_210" style="mask-type:luminance" maskUnits="userSpaceOnUse" x="0" y="-536" width="1440" height="3417">
<path d="M1440 -536H0V2880.5H1440V-536Z" fill="white"/>
</mask>
<g mask="url(#mask3_892_210)">
<g opacity="0.5">
<path d="M1725.9 520L1725.1 520.1C1718.9 477.6 1710.3 435.4 1697.8 394.4C1691.5 373.9 1684.3 353.7 1675.9 334C1667.5 314.3 1658 295.1 1647 276.7C1636.1 258.3 1623.8 240.8 1610 224.5C1606.7 220.4 1603 216.5 1599.4 212.5L1598.1 211L1596.7 209.6L1593.9 206.7C1592 204.8 1590.2 202.9 1588.3 201L1582.5 195.5C1581.5 194.6 1580.6 193.6 1579.6 192.8L1576.6 190.2L1570.6 185L1564.4 180C1556.1 173.4 1547.6 166.9 1538.5 161.6C1536.2 160.3 1533.8 159.1 1531.3 158.1C1528.8 157.1 1526.3 156.2 1523.7 155.4C1523.4 155.3 1523 155.2 1522.7 155.1C1521.7 154.8 1520.8 154.6 1519.8 154.4C1518.5 154.1 1517.1 153.8 1515.8 153.6C1514.5 153.3 1513.1 153.1 1511.8 152.8C1510.4 152.6 1509.1 152.4 1507.7 152.2C1504.9 151.9 1502.3 151.5 1499.5 151.2C1496.8 150.9 1494.1 150.7 1491.4 150.4C1488.8 150 1486.1 149.8 1483.5 149.4C1482.2 149.2 1480.9 149 1479.7 148.7C1478.4 148.5 1477.2 148.2 1475.9 148C1474.7 147.7 1473.4 147.4 1472.2 147.1L1468.5 146.1C1466.1 145.4 1463.7 144.6 1461.3 143.8L1457.8 142.5L1454.2 141.3L1447 138.9C1427.8 132.7 1408 127.9 1387.8 123.8L1380.2 122.3C1377.7 121.8 1375.1 121.4 1372.6 120.9L1364.9 119.5L1357.2 118.3C1354.6 117.9 1352.1 117.4 1349.5 117.1C1346.9 116.8 1344.3 116.4 1341.7 116C1336.5 115.2 1331.3 114.6 1326.1 114C1305.2 111.5 1284 109.9 1262.7 109.2C1241.4 108.5 1219.9 108.7 1198.6 109.9C1177.2 111 1155.9 113.2 1134.6 115.9C1113.3 118.6 1092 121.4 1070.8 124.6L1039 129.4L1007.2 134.5L943.601 144.8C901.201 151.7 858.701 158.2 816.001 163.1C773.301 168 730.401 171.2 687.401 171.2C644.401 171.2 601.301 168 559.101 159.7C538.001 155.5 517.101 150.1 496.701 143.2L489.101 140.5C486.601 139.6 484.001 138.8 481.501 137.7L474.001 134.8L470.201 133.3C469.001 132.8 467.701 132.2 466.501 131.7L459.101 128.5L455.401 126.9L451.801 125.2C446.901 122.9 442.101 120.5 437.301 118.2C418.101 108.5 399.401 97.9004 380.101 88.5004C360.901 79.0004 341.301 70.6004 321.101 63.7004C316.001 62.0004 311.001 60.4004 305.901 58.8004C300.801 57.3004 295.701 55.9004 290.501 54.5004L275.001 50.6004L259.401 47.4004L251.601 45.8004C249.001 45.3004 246.401 44.9004 243.701 44.5004L228.001 42.1004C225.401 41.7004 222.701 41.5004 220.101 41.1004L212.201 40.2004C206.901 39.7004 201.701 39.0004 196.401 38.8004L180.501 37.9004C177.901 37.7004 175.201 37.7004 172.601 37.7004L164.701 37.6004L156.801 37.5004H154.801L152.801 37.6004L148.801 37.7004L133.001 38.2004C112.001 39.4004 91.1008 41.7004 70.4008 45.3004C49.8008 49.0004 29.4008 53.9004 9.50078 60.0004C-9.09922 65.8004 -27.4992 72.4004 -45.1992 80.5004C-46.3992 81.1004 -47.5992 81.6004 -48.7992 82.2004L-67.1992 8.30039C-61.4992 8.00039 -55.7992 7.60042 -50.0992 7.20042C-44.3992 6.90042 -38.6992 6.60042 -33.0992 6.20042C-27.3992 5.90042 -21.7992 5.70043 -16.1992 5.40043C-10.5992 5.10043 -4.89924 5.00039 0.700768 4.80039C23.2008 4.10039 45.5008 4.10039 67.8008 4.80039C90.0008 5.60039 112.101 7.30038 134.001 9.60038C144.901 11.1004 155.801 12.2004 166.701 14.0004L174.801 15.3004C177.501 15.7004 180.201 16.1004 182.901 16.6004L199.001 19.7004C204.401 20.6004 209.701 21.9004 215.001 23.1004L223.001 24.9004C225.701 25.5004 228.301 26.0004 231.001 26.8004L246.801 30.9004C249.401 31.6004 252.101 32.2004 254.701 33.0004L257.601 33.9004L262.501 35.4004L278.101 40.0004L293.601 45.1004L308.901 50.5004C314.001 52.5004 319.001 54.4004 324.101 56.4004C334.101 60.5004 344.101 64.7004 353.801 69.4004C363.601 73.9004 373.201 78.9004 382.701 84.0004C392.201 89.1004 401.501 94.5004 410.901 99.8004C420.201 105.1 429.601 110.4 439.001 115.5C448.401 120.6 458.101 125.2 467.801 129.6C469.001 130.2 470.201 130.7 471.501 131.2L475.201 132.7L482.601 135.7C485.101 136.8 487.601 137.6 490.101 138.6L497.601 141.3C517.801 148.4 538.601 153.9 559.601 158.1C580.601 162.3 601.901 165.1 623.301 166.9C644.701 168.7 666.101 169.4 687.601 169.4C709.001 169.4 730.501 168.5 751.901 167.1C773.301 165.7 794.701 163.7 816.001 161.3C858.701 156.5 901.101 150.2 943.501 143.2C964.701 139.6 985.801 136 1007 132.2L1070.4 120.8C1091.6 117.1 1112.7 113.3 1134 109.9L1197.8 99.7004C1219.1 96.3004 1240.5 92.9004 1262.1 90.0004C1283.7 87.1004 1305.4 84.6004 1327.4 83.3004C1332.9 83.0004 1338.4 82.7004 1343.9 82.6004C1346.7 82.5004 1349.4 82.5004 1352.2 82.4004C1355 82.3004 1357.7 82.4004 1360.5 82.4004L1368.8 82.5004L1377.2 82.8004C1380 83.0004 1382.8 83.0004 1385.6 83.2004L1394 83.9004C1405.2 84.8004 1416.3 86.4004 1427.4 88.3004C1430.2 88.7004 1433 89.4004 1435.7 89.9004C1438.5 90.5004 1441.3 91.1004 1444 91.7004C1449.5 93.1004 1455 94.4004 1460.5 96.1004L1468.7 98.6004L1472.8 99.9004L1476.8 101.3C1479.5 102.2 1482.2 103.3 1484.8 104.4C1487.4 105.5 1489.9 107 1492.4 108.4C1493.6 109.2 1494.9 109.9 1496.1 110.7C1497.3 111.5 1498.5 112.4 1499.7 113.2C1502 115 1504.4 116.7 1506.5 118.8C1508.7 120.8 1510.8 122.9 1512.9 124.9C1515 127 1517 129.2 1519 131.3C1520 132.4 1521 133.4 1522 134.5C1522.3 134.8 1522.6 135.2 1522.9 135.5C1523.6 136.2 1524.3 137 1525 137.7C1527 139.9 1529 141.8 1531 143.8C1533 145.8 1535 147.7 1537.1 149.5L1540.2 152.2C1541.2 153.1 1542.3 154 1543.4 154.8C1547.7 158.1 1552.1 161.3 1556.5 164.5L1562.9 169.6L1566.1 172.1L1569.2 174.7L1575.4 180L1581.4 185.5L1584.4 188.3C1585.4 189.2 1586.3 190.2 1587.3 191.2L1593.1 197C1595 198.9 1596.8 201 1598.6 202.9L1602.7 207.4L1604 208.9C1607.5 213 1611.1 217.1 1614.4 221.3C1627.9 238.2 1640 256.2 1650.6 274.9C1661.2 293.7 1670.5 313.2 1678.6 333.1C1686.7 353.1 1693.6 373.4 1699.7 394.1L1704.1 409.6L1708.1 425.2C1709.5 430.4 1710.6 435.6 1711.8 440.9C1713 446.1 1714.2 451.4 1715.2 456.6L1718.4 472.4C1719.4 477.7 1720.3 483 1721.2 488.3L1722.6 496.2L1723.8 504.2L1725.9 520Z" fill="#D1C2F9"/>
</g>
</g>
<mask id="mask4_892_210" style="mask-type:luminance" maskUnits="userSpaceOnUse" x="0" y="-536" width="1440" height="3417">
<path d="M1440 -536H0V2880.5H1440V-536Z" fill="white"/>
</mask>
<g mask="url(#mask4_892_210)">
<path d="M-46 42.3008C170.8 -12.3992 478.5 27.7008 614.9 62.6008C785.5 106.201 856.4 166.301 1013 164.501C1191.9 162.501 1350.6 81.2008 1459.8 9.80078" stroke="#D1C2F9" stroke-width="0.7798" stroke-miterlimit="10"/>
</g>
<mask id="mask5_892_210" style="mask-type:luminance" maskUnits="userSpaceOnUse" x="0" y="-536" width="1440" height="3417">
<path d="M1440 -536H0V2880.5H1440V-536Z" fill="white"/>
</mask>
<g mask="url(#mask5_892_210)">
<mask id="mask6_892_210" style="mask-type:luminance" maskUnits="userSpaceOnUse" x="-257" y="806" width="1632" height="38">
<path d="M-256.068 843.3H1374.33V806.4H-256.068V843.3Z" fill="white"/>
</mask>
<g mask="url(#mask6_892_210)">
<g opacity="0.5">
<path d="M-8543.3 713.998H-8536.8C-8484.7 726.498 -8411.6 738.8 -8305.8 750.9C-8252.4 756.9 -8191.4 762.8 -8120.3 768.6C-8049.4 774.4 -7968.9 780 -7876.2 785.4C-7783.7 790.8 -7679.9 795.9 -7563.7 800.7C-7535.4 801.9 -7504.3 803 -7474.3 804.2L-7463 804.6L-7451.3 805L-7427.7 805.8C-7411.9 806.4 -7396.5 806.9 -7380.4 807.5L-7331.5 809.1C-7323.3 809.4 -7315.3 809.6 -7307 809.9L-7281.6 810.7L-7231 812.2L-7178.8 813.7C-7108.4 815.6 -7037.2 817.5 -6959.7 819.1C-6939.8 819.5 -6920.1 819.8 -6898.9 820.1C-6877.8 820.4 -6856.4 820.7 -6834.5 820.9C-6831.6 820.9 -6828.8 821 -6825.9 821C-6817.8 821.1 -6809.5 821.2 -6801.1 821.2C-6789.9 821.3 -6778.5 821.4 -6767 821.4C-6755.7 821.5 -6744.4 821.6 -6732.9 821.6C-6721.4 821.7 -6709.8 821.7 -6698.3 821.8C-6675.1 821.9 -6652.2 822 -6629.3 822.1C-6606.2 822.2 -6583.3 822.2 -6561 822.3C-6538.7 822.4 -6516.2 822.5 -6494.5 822.6C-6483.7 822.7 -6472.9 822.7 -6462.3 822.8C-6451.5 822.9 -6440.9 822.9 -6430.3 823C-6419.8 823.1 -6409.3 823.2 -6399 823.3L-6368.2 823.6C-6347.7 823.8 -6327.6 824 -6307.7 824.3L-6277.8 824.7L-6247.5 825L-6186.9 825.7C-6024.6 827.5 -5857 828.9 -5686.4 830.1L-5622.3 830.5C-5600.9 830.7 -5579.3 830.8 -5557.7 830.9L-5493 831.3L-5427.8 831.7C-5406.1 831.8 -5384.4 832 -5362.5 832.1C-5340.6 832.2 -5318.6 832.3 -5296.8 832.4C-5253 832.6 -5208.8 832.8 -5164.7 833C-4987.9 833.7 -4808.7 834.2 -4628.5 834.4C-4448.3 834.6 -4267.2 834.5 -4086.5 834.2C-3905.7 833.9 -3725.3 833.2 -3545.5 832.4C-3365.7 831.6 -3185.8 830.8 -3006.5 829.8L-2737.4 828.4L-2468.6 826.9L-1931.1 823.9C-1572.8 821.9 -1213.8 820 -852.899 818.5C-492.099 817.1 -129.299 816.1 234.201 816.1C597.501 816.1 961.701 817 1318.7 819.5C1497 820.7 1673.6 822.3 1845.9 824.3L1910.3 825.1C1931.8 825.4 1953.3 825.6 1974.4 825.9L2038 826.8L2069.9 827.2C2080.4 827.3 2090.8 827.5 2101.3 827.7L2164 828.6L2195.4 829.1L2226.2 829.6C2267.6 830.3 2308.3 831 2349.2 831.7C2511.9 834.5 2669.8 837.6 2832.3 840.4C2994.3 843.2 3160.2 845.7 3330.6 847.7C3373.3 848.2 3416.3 848.7 3459.1 849.1C3502.4 849.5 3545.6 850 3589 850.4L3720 851.5L3852.1 852.4L3918.1 852.9C3940.2 853.1 3962.5 853.2 3984.6 853.3L4117.6 854C4139.7 854.1 4162.1 854.2 4184.4 854.3L4251.2 854.5C4295.8 854.7 4340.1 854.8 4384.9 854.9L4518.8 855.2C4541 855.3 4563.4 855.3 4585.7 855.3H4652.6H4719.4H4736.1H4752.8H4786.3L4919.7 855.2C5097.5 854.8 5274.1 854.2 5448.5 853.1C5622.8 852 5794.7 850.6 5963.2 848.8C6120.8 847.1 6275.7 845.2 6425.8 842.8C6435.9 842.6 6446.1 842.5 6456.2 842.3L6611.7 864C6563.3 864.1 6515.4 864.2 6467.5 864.3C6419.5 864.4 6371.6 864.5 6324 864.6C6276.2 864.7 6228.4 864.8 6180.9 864.8C6133.4 864.9 6085.6 864.9 6038.2 865C5848.1 865.2 5659.3 865.2 5471.5 865C5283.6 864.8 5097 864.3 4912 863.6C4819.5 863.2 4727.3 862.8 4635.8 862.3L4567.2 861.9C4544.3 861.8 4521.4 861.7 4498.7 861.5L4362.5 860.6C4317 860.3 4272.2 859.9 4227.1 859.6L4159.6 859.1C4137.2 858.9 4114.6 858.8 4092.4 858.6L3958.8 857.4C3936.7 857.2 3914.3 857 3892.2 856.8L3867.5 856.5L3826.2 856.1L3694.4 854.7L3563.7 853.2L3434.2 851.6C3391.4 851 3348.7 850.5 3306.2 849.9C3221.4 848.7 3137.4 847.5 3054.9 846.1C2972 844.8 2891 843.3 2810.7 841.8C2730.6 840.3 2651.7 838.7 2572.7 837.2C2493.9 835.6 2415 834.1 2335.4 832.6C2255.8 831.1 2174.2 829.7 2091.6 828.5C2081.3 828.3 2071.1 828.2 2060.7 828L2029.3 827.6L1966.5 826.7C1945.7 826.4 1924.4 826.1 1903.1 825.9L1839.3 825.1C1668.4 823 1493.1 821.4 1315.4 820.2C1137.8 819 949.901 838.7 769.401 838.2C588.801 837.7 574.401 789.6 234.201 816.9C71.0014 830 -128.299 817.2 -309.199 817.6C-490.099 818 -670.699 818.6 -850.999 819.3C-1211.5 820.7 -1570.4 822.6 -1928.4 824.6C-2107.3 825.7 -2286.2 826.7 -2464.8 827.8L-3000.8 831.1C-3179.6 832.2 -3358.4 833.3 -3537.9 834.3L-4077 837.3C-4257.2 838.3 -4437.8 839.3 -4620.1 840.2C-4802.3 841.1 -4986.3 841.8 -5172.3 842.2C-5218.9 842.3 -5265.4 842.4 -5312.2 842.4C-5335.6 842.4 -5359 842.4 -5382.4 842.5C-5405.8 842.5 -5429.2 842.5 -5452.7 842.5H-5523.2L-5593.8 842.4C-5617.4 842.4 -5640.9 842.3 -5664.4 842.3L-5735.1 842.1C-5829.4 841.8 -5923.7 841.4 -6017.7 840.8C-6041.3 840.7 -6064.6 840.5 -6088 840.3C-6111.4 840.1 -6134.9 840 -6158.2 839.8C-6204.7 839.4 -6251.4 839 -6297.6 838.5L-6366.7 837.8L-6401.2 837.4L-6435.3 837C-6458.1 836.7 -6480.7 836.4 -6502.7 836.1C-6524.9 835.8 -6546.1 835.3 -6567.3 834.9C-6577.7 834.7 -6588.3 834.5 -6598.5 834.2C-6608.6 834 -6618.6 833.7 -6628.6 833.5C-6648.3 833 -6667.9 832.5 -6686.4 831.9C-6705 831.3 -6723 830.7 -6740.9 830.1C-6758.6 829.5 -6775.8 828.8 -6792.9 828.2C-6801.4 827.9 -6810.1 827.6 -6818.5 827.3C-6821 827.2 -6823.7 827.1 -6826.4 827C-6832.1 826.8 -6838 826.6 -6843.8 826.4C-6860.4 825.8 -6877.8 825.2 -6894.5 824.6C-6911.3 824 -6928.6 823.5 -6946.2 822.9L-6972.6 822.1C-6981.4 821.8 -6990.3 821.6 -6999.5 821.3C-7036.2 820.3 -7073.4 819.4 -7110.3 818.5L-7164.3 817L-7191.3 816.3L-7217.4 815.5L-7269.6 813.9L-7320.1 812.3L-7345.4 811.5C-7353.7 811.2 -7361.6 810.9 -7369.7 810.7L-7418.3 809C-7434.4 808.4 -7449.6 807.8 -7465.2 807.3L-7500.2 806L-7511.4 805.5C-7540.9 804.3 -7571.7 803.1 -7599.5 801.8C-7713.9 796.9 -7815.8 791.6 -7905.6 786.1C-7995.3 780.6 -8073.7 774.9 -8142 769C-8210.2 763.1 -8268.9 757.2 -8320.3 751.1L-8357.1 746.5L-8390.7 741.9C-8402.4 740.4 -8411.9 738.8 -8422.1 737.298C-8431.9 735.798 -8442.7 734.198 -8451.1 732.698L-8477.8 728.098C-8486.1 726.498 -8493.5 724.998 -8501.5 723.398L-8513.2 721.098L-8523.6 718.798L-8543.3 713.998Z" fill="#D1C2F9"/>
</g>
</g>
<path d="M1593.3 595.1C1592.9 633.1 1589.9 671.4 1582.1 708.7C1577.3 731.2 1570.9 753.6 1561.3 774.6C1545.5 809.9 1518.3 844.3 1479.6 854.9C1457.1 860.8 1433.9 862.2 1410.9 863.1C1365.1 864.2 1319.7 861.7 1274.1 859.9C1239.9 858.1 1205.6 857.6 1171.6 852.5C1166.4 851.4 1155.4 850.3 1154.1 844.6C1153.6 842.9 1154.7 840.5 1156 839.6C1162.8 834.4 1187.9 833.3 1197.4 832.5C1258.4 828.4 1340.8 824.4 1401.9 820.2C1408.5 819.6 1415.9 819.2 1422 818.2C1421.2 816.3 1420.8 823 1422.1 822C1422.3 822.1 1422.2 822 1422.2 822C1420.1 821.7 1418 821.8 1415.8 821.7C1260.7 824.3 1099 832.9 943.801 839.2L852.801 843.3C921.501 840 1246.7 824 1307.6 821.4C1341.7 819.9 1375.9 818.4 1410 817.5C1414.2 817.5 1418.5 817.2 1422.8 817.6C1423 817.6 1423.1 817.6 1423.6 817.8C1425.3 816.9 1424.7 824 1423.7 822.1C1422.2 822.7 1420.7 822.8 1419.2 823.1C1413.5 823.9 1407.8 824.4 1402.1 825C1341.6 830.8 1281.1 835.6 1220.5 839.7C1213.7 840.1 1193.2 841.5 1186.5 841.9C1179.1 842.5 1171.7 843 1164.5 844.4C1163.7 844.6 1162.8 844.8 1162.1 845C1161.7 845.1 1161.4 845.2 1161.1 845.3C1160.8 845.4 1160.6 845.5 1160.7 845.5C1160.7 845.5 1160.9 845.3 1161.1 844.9C1161.3 844.5 1161.6 843.6 1161.4 842.9C1161.2 842.2 1161 841.9 1160.9 841.8C1160.8 841.7 1160.8 841.7 1160.8 841.7C1161 841.9 1161.7 842.3 1162.4 842.6C1169.2 845.2 1176.5 846.5 1183.7 847.9C1273 863.5 1365.5 863.7 1454.9 849.4C1465.8 847.4 1476.6 845.1 1486.7 841C1536.8 818.3 1559.7 762.5 1573.3 712.4C1577.5 696.1 1581.1 679.2 1583.9 662.6C1585.2 655.8 1586.3 647 1587.4 640.2C1589.5 625.2 1591.2 610.1 1592.7 595C1592.9 595.1 1593.3 595.1 1593.3 595.1Z" fill="#D1C2F9"/>
</g>
</g>
</g>
<defs>
<clipPath id="clip0_892_210">
<rect width="1440" height="870" fill="white"/>
</clipPath>
</defs>
</svg>
