<svg width="16" height="16" viewBox="0 0 16 16" fill="none" xmlns="http://www.w3.org/2000/svg">
<rect width="16" height="16" rx="8" fill="white"/>
<path fill-rule="evenodd" clip-rule="evenodd" d="M6.84305 6.63605H8.51435V7.46855C8.7551 6.98975 9.3725 6.55955 10.2999 6.55955C12.0779 6.55955 12.5 7.51265 12.5 9.26135V12.5H10.7V9.6596C10.7 8.66375 10.4593 8.10215 9.84635 8.10215C8.9963 8.10215 8.64305 8.7074 8.64305 9.65915V12.5H6.84305V6.63605ZM3.7565 12.4235H5.5565V6.55955H3.7565V12.4235ZM5.81435 4.6475C5.81442 4.79837 5.7845 4.94776 5.72632 5.08696C5.66815 5.22617 5.58289 5.35243 5.4755 5.4584C5.36779 5.56555 5.24002 5.65043 5.09949 5.70819C4.95896 5.76594 4.80843 5.79544 4.6565 5.795C4.35032 5.79431 4.05661 5.67363 3.8384 5.45885C3.73143 5.35249 3.64649 5.22609 3.58842 5.08687C3.53036 4.94765 3.50031 4.79834 3.5 4.6475C3.5 4.34285 3.6215 4.05125 3.83885 3.83615C4.05652 3.62055 4.35058 3.49972 4.65695 3.5C4.96385 3.5 5.25815 3.62105 5.4755 3.83615C5.69285 4.05125 5.81435 4.34285 5.81435 4.6475Z" fill="url(#paint0_linear_1070_18020)"/>
<defs>
<linearGradient id="paint0_linear_1070_18020" x1="7.87227" y1="23.4066" x2="7.87227" y2="3.5" gradientUnits="userSpaceOnUse">
<stop stop-color="white"/>
<stop offset="1"/>
</linearGradient>
</defs>
</svg>
