<svg width="16" height="16" viewBox="0 0 16 16" fill="none" xmlns="http://www.w3.org/2000/svg">
<rect width="16" height="16" rx="8" fill="white"/>
<path d="M8.05011 10.95C9.65011 10.95 10.8501 9.65015 10.8501 8.15015C10.8501 6.55015 9.55011 5.3501 8.05011 5.3501C6.45011 5.3501 5.25012 6.65015 5.25012 8.15015C5.25012 9.65015 6.45011 10.95 8.05011 10.95ZM5.8501 8.15015C5.8501 6.95015 6.85013 6.05005 7.95013 6.05005C9.15013 6.05005 10.0501 7.05015 10.0501 8.15015C10.0501 9.35015 9.05013 10.25 7.95013 10.25C6.85013 10.25 5.8501 9.35015 5.8501 8.15015ZM12.6501 10.75C12.6501 11.85 11.7501 12.6501 10.7501 12.6501H5.25012C4.15012 12.6501 3.3501 11.75 3.3501 10.75V5.25C3.3501 4.15 4.25012 3.3501 5.25012 3.3501H10.7501C11.8501 3.3501 12.6501 4.25 12.6501 5.25V10.75ZM12.0501 5.25C12.0501 4.55 11.4501 3.94995 10.7501 3.94995H5.05011C4.35011 3.94995 3.8501 4.6501 3.8501 5.3501V10.8501C3.8501 11.5501 4.35011 12.05 5.05011 12.05H10.7501C11.4501 12.05 12.0501 11.3501 12.0501 10.6501V5.25ZM11.3501 5.15015C11.3501 5.35015 11.1501 5.55005 10.9501 5.55005C10.7501 5.55005 10.5501 5.35015 10.5501 5.15015C10.5501 4.95015 10.7501 4.75 10.9501 4.75C11.1501 4.75 11.3501 4.95015 11.3501 5.15015Z" fill="url(#paint0_radial_921_70)"/>
<defs>
<radialGradient id="paint0_radial_921_70" cx="0" cy="0" r="1" gradientUnits="userSpaceOnUse" gradientTransform="translate(4.34578 4.4451) scale(11.092 10.7816)">
<stop offset="0.0153631" stop-color="#333333"/>
<stop offset="0.3243" stop-color="#333333"/>
<stop offset="0.7208" stop-color="#333333"/>
<stop offset="1" stop-color="#333333"/>
</radialGradient>
</defs>
</svg>
