<svg width="16" height="16" viewBox="0 0 16 16" fill="none" xmlns="http://www.w3.org/2000/svg">
<rect width="16" height="16" rx="8" fill="white"/>
<path d="M10 3.5C10.663 3.5 11.2989 3.76339 11.7678 4.23223C12.2366 4.70107 12.5 5.33696 12.5 6V10C12.5 10.663 12.2366 11.2989 11.7678 11.7678C11.2989 12.2366 10.663 12.5 10 12.5H6C5.33696 12.5 4.70107 12.2366 4.23223 11.7678C3.76339 11.2989 3.5 10.663 3.5 10V6C3.5 5.33696 3.76339 4.70107 4.23223 4.23223C4.70107 3.76339 5.33696 3.5 6 3.5H10ZM8 6C7.46957 6 6.96086 6.21071 6.58579 6.58579C6.21071 6.96086 6 7.46957 6 8C6 8.53043 6.21071 9.03914 6.58579 9.41421C6.96086 9.78929 7.46957 10 8 10C8.53043 10 9.03914 9.78929 9.41421 9.41421C9.78929 9.03914 10 8.53043 10 8C10 7.46957 9.78929 6.96086 9.41421 6.58579C9.03914 6.21071 8.53043 6 8 6ZM8 7C8.26522 7 8.51957 7.10536 8.70711 7.29289C8.89464 7.48043 9 7.73478 9 8C9 8.26522 8.89464 8.51957 8.70711 8.70711C8.51957 8.89464 8.26522 9 8 9C7.73478 9 7.48043 8.89464 7.29289 8.70711C7.10536 8.51957 7 8.26522 7 8C7 7.73478 7.10536 7.48043 7.29289 7.29289C7.48043 7.10536 7.73478 7 8 7ZM10.25 5.25C10.1174 5.25 9.99021 5.30268 9.89645 5.39645C9.80268 5.49021 9.75 5.61739 9.75 5.75C9.75 5.88261 9.80268 6.00979 9.89645 6.10355C9.99021 6.19732 10.1174 6.25 10.25 6.25C10.3826 6.25 10.5098 6.19732 10.6036 6.10355C10.6973 6.00979 10.75 5.88261 10.75 5.75C10.75 5.61739 10.6973 5.49021 10.6036 5.39645C10.5098 5.30268 10.3826 5.25 10.25 5.25Z" fill="url(#paint0_linear_1070_18016)"/>
<defs>
<linearGradient id="paint0_linear_1070_18016" x1="8" y1="22.5" x2="8" y2="3.5" gradientUnits="userSpaceOnUse">
<stop stop-color="white"/>
<stop offset="1"/>
</linearGradient>
</defs>
</svg>
