<svg width="163" height="49" viewBox="0 0 163 49" fill="none" xmlns="http://www.w3.org/2000/svg">
<path d="M161.1 43.1C161.1 45.6 159 47.7 156.5 47.7H6.09998C3.59998 47.7 1.5 45.6 1.5 43.1V6.50003C1.5 4.00003 3.59998 1.90002 6.09998 1.90002H156.5C159 1.90002 161.1 4.00003 161.1 6.50003V43.1Z" fill="white"/>
<path d="M156.5 48.8H6.09985C2.99985 48.8 0.399902 46.3 0.399902 43.1V6.50006C0.399902 3.40006 2.89985 0.800049 6.09985 0.800049H156.5C159.6 0.800049 162.2 3.30006 162.2 6.50006V43.1C162.2 46.3 159.6 48.8 156.5 48.8Z" fill="#A6A5A5"/>
<path d="M161.1 43.1C161.1 45.6 159 47.7 156.5 47.7H6.09998C3.59998 47.7 1.5 45.6 1.5 43.1V6.50003C1.5 4.00003 3.59998 1.90002 6.09998 1.90002H156.5C159 1.90002 161.1 4.00003 161.1 6.50003V43.1Z" fill="#010101"/>
<path opacity="0.1" d="M156.5 0.900024H76L107.5 48.8H156.5C159.6 48.8 162.2 46.3 162.2 43.1V6.50003C162.2 3.40003 159.7 0.900024 156.5 0.900024Z" fill="white"/>
<path d="M37.6998 25.3C37.6998 21.5 40.7998 19.7 40.8998 19.6C39.0998 17 36.3998 16.7 35.3998 16.6C33.0998 16.4 30.8998 18 29.6998 18C28.4998 18 26.6998 16.6 24.6998 16.7C22.1998 16.7 19.7997 18.2 18.5997 20.4C15.8997 25 17.8998 31.8 20.4998 35.5C21.7998 37.3 23.2998 39.4 25.1998 39.3C27.0998 39.2 27.7997 38.1 30.0997 38.1C32.3997 38.1 32.9998 39.3 34.9998 39.3C36.9998 39.3 38.2997 37.5 39.5997 35.6C41.0997 33.5 41.6998 31.5 41.6998 31.4C41.6998 31.3 37.7998 29.8 37.6998 25.3ZM33.9998 14.2C34.9998 12.9 35.6998 11.2 35.4998 9.40002C33.9998 9.50002 32.1997 10.4 31.0997 11.7C30.1997 12.8 29.2998 14.6 29.4998 16.3C31.1998 16.4 32.8998 15.4 33.9998 14.2Z" fill="white"/>
<path d="M65.3 37.7H62.6L61.1 33.1H56L54.6 37.7H52L57 22.1H60.1L65.3 37.7ZM60.8 31.2L59.5 27.1C59.4 26.7 59.1 25.7 58.7 24.2C58.5 24.9 58.3 25.8 58 27.1L56.7 31.2H60.8ZM78.2 31.9C78.2 33.8 77.7 35.3 76.6 36.4C75.7 37.4 74.5 37.9001 73.1 37.9001C71.6 37.9001 70.5 37.4 69.9 36.3V42.2H67.4V30.1C67.4 28.9 67.4 27.7 67.3 26.4H69.5L69.6 28.2C70.4 26.9 71.7 26.2 73.4 26.2C74.7 26.2 75.8 26.7 76.7 27.8C77.8 28.8 78.2 30.2 78.2 31.9ZM75.7 32C75.7 30.9 75.5 30 75 29.3C74.5 28.6 73.7 28.2 72.8 28.2C72.2 28.2 71.6 28.4 71.1 28.8C70.6 29.2 70.3 29.7 70.1 30.4C70 30.6 70 30.9 70 31.2V33.1C70 33.9 70.3 34.6 70.8 35.2C71.3 35.8 72 36 72.8 36C73.7 36 74.5 35.6 75 34.9C75.4 34.1 75.7 33.2 75.7 32ZM91.2 31.9C91.2 33.8 90.7 35.3 89.6 36.4C88.7 37.4 87.5 37.9001 86.1 37.9001C84.6 37.9001 83.5 37.4 82.9 36.3V42.2H80.4V30.1C80.4 28.9 80.4 27.7 80.3 26.4H82.5L82.6 28.2C83.4 26.9 84.7 26.2 86.4 26.2C87.7 26.2 88.8 26.7 89.7 27.8C90.7 28.8 91.2 30.2 91.2 31.9ZM88.6 32C88.6 30.9 88.4 30 87.9 29.3C87.4 28.6 86.6 28.2 85.7 28.2C85.1 28.2 84.5 28.4 84 28.8C83.5 29.2 83.2 29.7 83 30.4C82.9 30.7 82.9 31 82.9 31.2V33.1C82.9 33.9 83.2 34.6 83.7 35.2C84.2 35.8 84.9 36 85.7 36C86.6 36 87.4 35.6 87.9 34.9C88.3 34.1 88.6 33.2 88.6 32ZM105.6 33.3C105.6 34.6 105.1 35.7 104.2 36.5C103.2 37.4 101.8 37.9001 100 37.9001C98.3 37.9001 97 37.6 96 36.9L96.6 34.8C97.7 35.4 98.9 35.8 100.2 35.8C101.1 35.8 101.9 35.6 102.4 35.2C102.9 34.8 103.2 34.2 103.2 33.5C103.2 32.9 103 32.3 102.6 31.9C102.2 31.5 101.5 31.1 100.4 30.7C97.7 29.7 96.3 28.2 96.3 26.2C96.3 24.9 96.8 23.9 97.7 23.1C98.7 22.3 99.9 21.9 101.5 21.9C102.9 21.9 104.1 22.1 105 22.6L104.4 24.6C103.5 24.1 102.5 23.9 101.4 23.9C100.5 23.9 99.8 24.1 99.3 24.5C98.9 24.9 98.7 25.4 98.7 25.9C98.7 26.5 98.9 27 99.4 27.4C99.8 27.8 100.6 28.2 101.7 28.6C103 29.1 104 29.8 104.7 30.5C105.3 31.3 105.6 32.2 105.6 33.3ZM113.9 28.3H111.1V33.8C111.1 35.2 111.6 35.9 112.6 35.9C113 35.9 113.4 35.9 113.7 35.8L113.8 37.7C113.3 37.9 112.7 38 111.9 38C110.9 38 110.1 37.7 109.6 37.1C109 36.5 108.8 35.5 108.8 34.1V28.4H107.2V26.5H108.8V24.4L111.3 23.7V26.5H114.1V28.3H113.9ZM126.3 31.9C126.3 33.6 125.8 35 124.8 36.2C123.8 37.3 122.4 37.9001 120.7 37.9001C119 37.9001 117.7 37.4 116.8 36.3C115.8 35.2 115.3 33.8 115.3 32.2C115.3 30.5 115.8 29 116.8 27.9C117.8 26.8 119.2 26.2 120.9 26.2C122.6 26.2 123.9 26.7 124.9 27.8C125.8 28.9 126.3 30.3 126.3 31.9ZM123.7 32C123.7 31 123.5 30.1 123 29.3C122.5 28.4 121.7 28 120.8 28C119.8 28 119 28.4 118.5 29.3C118.1 30 117.8 30.9 117.8 32C117.8 33 118 33.9 118.5 34.7C119 35.6 119.8 36 120.8 36C121.8 36 122.5 35.5 123 34.6C123.5 33.9 123.7 33 123.7 32ZM134.4 28.6C134.1 28.6 133.9 28.5 133.6 28.5C132.7 28.5 132 28.8 131.6 29.5C131.2 30.1 131 30.8 131 31.7V37.6H128.5V30C128.5 28.8 128.5 27.6 128.4 26.5H130.6L130.7 28.7H130.8C131.1 28 131.5 27.4 132 26.9C132.5 26.5 133.2 26.3 133.8 26.3C134 26.3 134.2 26.3 134.4 26.3V28.6ZM145.6 31.5C145.6 31.9 145.6 32.3 145.5 32.6H138C138 33.7 138.4 34.6 139.1 35.1C139.7 35.6 140.5 35.9 141.6 35.9C142.7 35.9 143.7 35.7 144.6 35.4L145 37.1C143.9 37.6 142.7 37.8 141.2 37.8C139.5 37.8 138.1 37.3 137.1 36.3C136.1 35.3 135.6 33.9 135.6 32.2C135.6 30.5 136.1 29.1 137 28C138 26.8 139.3 26.2 140.9 26.2C142.5 26.2 143.7 26.8 144.6 28C145.3 28.9 145.6 30.1 145.6 31.5ZM143.2 30.9C143.2 30.2 143.1 29.5 142.7 29C142.3 28.3 141.6 28 140.7 28C139.9 28 139.2 28.3 138.7 29C138.3 29.5 138 30.2 138 30.9H143.2Z" fill="white"/>
<path d="M55.3997 17.9001C54.6997 17.9001 54.0996 17.9001 53.5996 17.8001V10.3001C54.2996 10.2001 54.9996 10.1001 55.6996 10.1001C58.5996 10.1001 59.8997 11.5001 59.8997 13.8001C59.8997 16.5001 58.3997 17.9001 55.3997 17.9001ZM55.7996 11.1001C55.3996 11.1001 55.0996 11.1001 54.7996 11.2001V16.9001C54.8996 16.9001 55.1996 16.9001 55.5996 16.9001C57.4996 16.9001 58.4996 15.8001 58.4996 13.8001C58.5996 12.1001 57.6996 11.1001 55.7996 11.1001ZM63.9996 18.0001C62.3996 18.0001 61.2996 16.8001 61.2996 15.2001C61.2996 13.5001 62.3996 12.3001 64.0996 12.3001C65.6996 12.3001 66.7996 13.4001 66.7996 15.1001C66.7996 16.8001 65.6996 18.0001 63.9996 18.0001ZM64.0996 13.1001C63.1996 13.1001 62.5996 13.9001 62.5996 15.1001C62.5996 16.2001 63.1996 17.1001 63.9996 17.1001C64.8996 17.1001 65.3997 16.2001 65.3997 15.1001C65.4997 13.9001 64.8996 13.1001 64.0996 13.1001ZM75.9996 12.3001L74.2996 17.8001H73.1996L72.4996 15.4001C72.2996 14.8001 72.1996 14.2001 72.0996 13.6001C71.9996 14.2001 71.7996 14.8001 71.6996 15.4001L70.8997 17.8001H69.7996L68.1996 12.3001H69.4996L70.0996 14.9001C70.1996 15.5001 70.3996 16.1001 70.4996 16.7001C70.5996 16.2001 70.6996 15.7001 70.9996 14.9001L71.7996 12.3001H72.7996L73.5996 14.9001C73.7996 15.5001 73.8996 16.1001 73.9996 16.7001C74.0996 16.1001 74.1997 15.5001 74.3997 14.9001L75.0996 12.3001H75.9996ZM82.3997 17.8001H81.1996V14.6001C81.1996 13.6001 80.7996 13.1001 80.0996 13.1001C79.3996 13.1001 78.8997 13.7001 78.8997 14.5001V17.8001H77.6996V13.9001C77.6996 13.4001 77.6996 12.9001 77.6996 12.3001H78.7996L78.8997 13.2001C79.1997 12.6001 79.8996 12.2001 80.6996 12.2001C81.8996 12.2001 82.5996 13.1001 82.5996 14.5001L82.3997 17.8001ZM85.7996 17.8001H84.5996V9.7001H85.7996V17.8001ZM90.1996 18.0001C88.5996 18.0001 87.4996 16.8001 87.4996 15.2001C87.4996 13.5001 88.5996 12.3001 90.2996 12.3001C91.8996 12.3001 92.9996 13.4001 92.9996 15.1001C92.9996 16.8001 91.8996 18.0001 90.1996 18.0001ZM90.2996 13.1001C89.3996 13.1001 88.7996 13.9001 88.7996 15.1001C88.7996 16.2001 89.3996 17.1001 90.1996 17.1001C91.0996 17.1001 91.5996 16.2001 91.5996 15.1001C91.6996 13.9001 91.0996 13.1001 90.2996 13.1001ZM97.7996 17.8001L97.6996 17.2001C97.2996 17.7001 96.7996 18.0001 96.0996 18.0001C95.0996 18.0001 94.3997 17.3001 94.3997 16.4001C94.3997 15.0001 95.5996 14.3001 97.5996 14.3001V14.2001C97.5996 13.5001 97.1996 13.1001 96.4996 13.1001C95.9996 13.1001 95.4996 13.2001 95.0996 13.5001L94.8997 12.7001C95.3997 12.4001 95.9996 12.2001 96.7996 12.2001C98.1996 12.2001 98.9996 13.0001 98.9996 14.5001V16.5001C98.9996 17.1001 98.9996 17.5001 99.0996 17.8001H97.7996ZM97.6996 15.1001C96.2996 15.1001 95.6996 15.4001 95.6996 16.2001C95.6996 16.8001 96.0996 17.1001 96.4996 17.1001C97.0996 17.1001 97.6996 16.6001 97.6996 16.0001V15.1001ZM104.8 17.8001L104.7 16.9001C104.3 17.6001 103.8 17.9001 102.9 17.9001C101.6 17.9001 100.6 16.7001 100.6 15.1001C100.6 13.4001 101.6 12.2001 103 12.2001C103.7 12.2001 104.3 12.4001 104.6 13.0001V9.80008H105.8V16.4001C105.8 16.9001 105.8 17.4001 105.8 17.9001H104.8V17.8001ZM104.6 14.6001C104.6 13.8001 104.1 13.2001 103.3 13.2001C102.4 13.2001 101.8 14.0001 101.8 15.1001C101.8 16.2001 102.4 17.0001 103.2 17.0001C104 17.0001 104.5 16.3001 104.5 15.5001V14.6001H104.6ZM113.7 18.0001C112.1 18.0001 111 16.8001 111 15.2001C111 13.5001 112.1 12.3001 113.8 12.3001C115.4 12.3001 116.5 13.4001 116.5 15.1001C116.4 16.8001 115.3 18.0001 113.7 18.0001ZM113.7 13.1001C112.8 13.1001 112.2 13.9001 112.2 15.1001C112.2 16.2001 112.8 17.1001 113.6 17.1001C114.5 17.1001 115 16.2001 115 15.1001C115.1 13.9001 114.6 13.1001 113.7 13.1001ZM123 17.8001H121.8V14.6001C121.8 13.6001 121.4 13.1001 120.7 13.1001C120 13.1001 119.5 13.7001 119.5 14.5001V17.8001H118.3V13.9001C118.3 13.4001 118.3 12.9001 118.3 12.3001H119.4L119.5 13.2001C119.8 12.6001 120.5 12.2001 121.3 12.2001C122.5 12.2001 123.2 13.1001 123.2 14.5001V17.8001H123ZM131.3 13.2001H129.9V15.9001C129.9 16.6001 130.1 16.9001 130.6 16.9001C130.8 16.9001 131 16.9001 131.1 16.8001V17.7001C130.9 17.8001 130.5 17.8001 130.1 17.8001C129.1 17.8001 128.6 17.3001 128.6 15.9001V13.1001H127.8V12.2001H128.6V11.2001L129.8 10.8001V12.2001H131.2V13.2001H131.3ZM137.8 17.8001H136.6V14.6001C136.6 13.6001 136.2 13.1001 135.5 13.1001C134.9 13.1001 134.3 13.5001 134.3 14.4001V17.7001H133.1V9.6001H134.3V12.9001C134.7 12.3001 135.2 12.0001 136 12.0001C137.2 12.0001 137.9 12.9001 137.9 14.4001L137.8 17.8001ZM144.5 15.4001H140.8C140.8 16.4001 141.5 17.0001 142.5 17.0001C143 17.0001 143.5 16.9001 144 16.7001L144.2 17.6001C143.7 17.8001 143.1 17.9001 142.3 17.9001C140.6 17.9001 139.5 16.8001 139.5 15.1001C139.5 13.4001 140.5 12.1001 142.1 12.1001C143.5 12.1001 144.4 13.1001 144.4 14.7001C144.5 15.0001 144.5 15.2001 144.5 15.4001ZM143.3 14.5001C143.3 13.6001 142.9 13.0001 142.1 13.0001C141.4 13.0001 140.8 13.6001 140.8 14.5001H143.3Z" fill="white"/>
</svg>
