<svg width="81" height="88" viewBox="0 0 81 88" fill="none" xmlns="http://www.w3.org/2000/svg">
<path d="M31.3998 88C27.4998 87.5 25.4998 83.3 22.7998 82.9C22.4998 82.9 21.0998 82.8 20.9998 82.9C20.9998 82.9 20.8998 83.4 20.7998 83.6C20.3998 84.4 19.4998 85.1 18.5998 85.3C17.7998 85.5 14.2998 85.5 13.5998 85.3C12.5998 85.1 12.2998 83.7 12.9998 83C13.0998 82.9 13.8998 82.6 13.8998 82.6H18.1998C18.1998 82.6 18.4998 82.4 18.4998 82.3V57C18.4998 56.7 17.7998 56.6 17.5998 56.6C14.3998 56.3 7.79979 56.3 4.59979 56.6C3.59979 56.7 3.59982 56.7999 3.49982 57.6999V82.1C3.49982 82.2 3.59979 82.4 3.59979 82.5C4.19979 83.3 8.79983 82 9.19983 83.5C9.39983 84.2 9.29979 84.8999 8.59979 85.1999C7.99979 85.4999 4.6998 85.5 3.7998 85.4C2.2998 85.3 1.2998 84.3 0.799805 82.9V56.8C0.899805 55.4 2.09982 54.1 3.49982 54C8.19982 53.5 13.7998 54.4 18.4998 54C20.0998 54.2 20.7998 56 20.8998 56.1C21.8998 56.3 24.1998 56 25.1998 55.6C26.9998 54.9 31.1998 50.7 32.1998 49C34.5998 45.1 33.0998 37.8 38.9998 37C46.9998 35.9 46.0998 47 44.7998 51.9C44.3998 53.3 43.7998 54.7 43.4998 56.1H58.5998C59.6998 56.1 61.5998 57.6 62.0998 58.6C63.2998 60.9 62.7998 63 61.0998 64.9C63.0998 67.2 62.8998 70.6 60.3998 72.4C61.0998 73.8 61.5998 74.9 61.3998 76.6C61.1998 77.9 59.5998 79.4999 59.4998 79.6999C59.4998 79.8999 59.9998 80.3999 60.1998 80.6999C61.5998 83.8999 60.0998 86.7 56.9998 87.9H31.3998V88ZM23.5998 58.8C22.7998 58.9 21.8998 58.7 21.0998 58.8V80.1C25.8998 79.3 27.5998 84.1999 31.5998 85.1999C39.1998 85.0999 47.7998 86.1 55.2998 85.4C58.8998 85.1 58.4998 81.1 56.1998 80.8C54.9998 80.7 51.1998 81.1999 50.4998 80.1999C49.9998 79.4999 50.3998 78.3 51.2998 78.1C53.3998 77.7 58.8998 79.2999 58.7998 75.6999C58.6998 71.9999 53.1998 74.2 51.0998 73.3C50.1998 72.9 49.9998 71.7 50.7998 71.1C52.4998 69.7 59.5998 72.5 59.7998 68.6C60.0998 64 51.7998 67.5 50.5998 65.5C50.0998 64.8 50.4998 63.6 51.3998 63.4C53.5998 63 58.6998 64.4 59.8998 62.1C60.5998 60.7 59.8998 59.1999 58.3998 58.6999C53.3998 58.2999 47.5998 59.1999 42.6998 58.6999C39.0998 58.2999 41.3998 54.2999 41.9998 52.1999C42.8998 49.1999 43.2998 45.3999 42.8998 42.1999C42.5998 38.9999 37.8998 38.5 36.9998 41.9C36.4998 43.6 36.4998 45.5 35.8998 47.3C34.3998 51.8 28.2998 58.3 23.5998 58.8Z" fill="url(#paint0_linear_830_17269)"/>
<path d="M16.3999 18.2C18.0999 18.7 22.0999 18.3 23.0999 19.9C24.5999 22.4 20.2999 24.5001 19.0999 26.3001C19.0999 28.1001 20.6999 31.7 19.4999 33.2C17.7999 35.3 13.9999 32.0001 12.1999 31.3001C10.5999 31.8001 7.79988 34.1 6.29988 33.9C2.99988 33.6 5.19988 28.2001 5.29988 26.3001C4.09988 24.4001 -0.600087 22.3 1.39991 19.6C2.29991 18.4 6.49989 18.5 7.99989 18.1C8.69989 16.9 9.89989 13.2 10.9999 12.5C11.8999 12 13.1999 12.2 13.8999 13C14.3999 13.8 16.0999 18 16.3999 18.2ZM20.0999 21.4C18.2999 21 16.2999 21.2001 14.5999 20.3001L11.9999 15.6C11.3999 16.8 10.3999 19.8 9.29988 20.5C8.39988 21.1 4.3999 21.2 4.1999 21.4C4.9999 22.7 7.59991 24.2 7.89991 25.7C8.19991 27 7.29986 29.4001 7.09986 30.8001C7.29986 31.0001 10.9999 28.6 11.9999 28.6C13.5999 28.5 15.4999 30.3001 16.9999 30.8001C17.1999 30.5001 16.0999 26.5 16.3999 25.4C16.6999 24.6 20.2999 21.6 20.0999 21.4Z" fill="url(#paint1_linear_830_17269)"/>
<path d="M55.2997 13.9L46.5997 12.7C45.4997 12.4 45.0997 12.1 44.5997 11.1C43.1997 8.89998 42.2997 5.89996 40.8997 3.69996C40.7997 3.59996 40.5997 3.20006 40.4997 3.30006L36.5997 11.3001C35.9997 12.1001 35.4997 12.4 34.5997 12.7C31.8997 13.4 28.7997 13.3 25.9997 13.9L32.2997 20.1L32.9997 21.2C33.0997 24.5 31.9997 28.0001 31.4997 31.3001L39.6997 27C40.4997 26.7 41.3997 26.9 42.0997 27.2L49.6997 31.3001C49.8997 31.0001 48.6997 26.2 48.7997 25.1C48.8997 24.1 50.1997 23.6001 50.8997 24.3001C51.6997 25.1001 51.8997 29.6 52.2997 30.9C51.3997 37.9 43.7997 30.5 40.3997 29.6L32.0997 33.8001C29.5997 34.2001 28.4997 32.8001 28.5997 30.3001C28.7997 27.6001 29.8998 24.7 29.8998 22L23.7997 16C22.1997 14.2 22.7997 11.9 25.1997 11.2C27.8997 10.5 31.2997 10.6 33.9997 9.90003L37.6997 2.19996C39.2997 -0.300041 41.4997 -0.0999674 42.9997 2.40003C44.3997 4.70003 45.1997 7.60006 46.6997 9.80006L55.3997 11.1C57.3997 11.5 58.3997 13.7 57.1997 15.4C56.6997 16 53.0997 19.7 52.3997 20.2C51.4997 20.8 50.0997 20.5001 49.9997 19.3001C50.1997 18.1001 54.4997 15.3 55.2997 13.9Z" fill="url(#paint2_linear_830_17269)"/>
<path d="M70.5998 13C71.2998 13.7 72.8998 18 73.2998 18.2C74.9998 18.7 79.4999 18.4001 80.1999 20.3001C80.9999 22.8001 77.2998 24.5 76.0998 26.4C75.9998 28.3 78.1999 32.8001 75.6999 33.8001C73.6999 34.6001 70.9999 31.9 68.9999 31.4C67.2999 32 64.2998 34.6001 62.5998 33.8001C59.9998 32.7001 62.2999 28.3 62.1999 26.2C60.8999 24.7 55.9999 21.8 58.4999 19.5C59.5999 18.5 63.2998 18.7 64.7998 18.1C65.1998 17.9 66.6999 14.1 67.1999 13.4C67.8999 12.1 69.4998 11.9 70.5998 13ZM76.9999 21.4C75.5999 21 72.6999 21.2001 71.4999 20.3001C70.4999 19.5001 69.5999 16.7 68.9999 15.6C68.3999 15.9 67.2999 19.8 66.1999 20.5C65.2999 21 61.2998 21.2 61.0998 21.4C61.8998 22.6 64.1998 24.0001 64.5998 25.3001C65.0998 26.6001 64.0999 29.3001 63.9999 30.8001C64.1999 31.0001 67.7999 28.6 68.8999 28.6C70.3999 28.5 72.4999 30.4001 73.8999 30.8001C73.8999 29.2001 72.7998 26.8001 73.2998 25.3001C73.6998 24.0001 76.1999 22.7 76.9999 21.4Z" fill="url(#paint3_linear_830_17269)"/>
<defs>
<linearGradient id="paint0_linear_830_17269" x1="31.7586" y1="-33.7694" x2="31.7586" y2="183.7" gradientUnits="userSpaceOnUse">
<stop stop-color="#CA01FF"/>
<stop offset="0.0851506" stop-color="#C30AFE"/>
<stop offset="0.225" stop-color="#AF23FA"/>
<stop offset="0.4022" stop-color="#8F4BF4"/>
<stop offset="0.6097" stop-color="#6283ED"/>
<stop offset="0.84" stop-color="#2ACAE3"/>
<stop offset="1" stop-color="#00FFDB"/>
</linearGradient>
<linearGradient id="paint1_linear_830_17269" x1="12.1203" y1="-33.7694" x2="12.1203" y2="183.701" gradientUnits="userSpaceOnUse">
<stop stop-color="#CA01FF"/>
<stop offset="0.0851506" stop-color="#C30AFE"/>
<stop offset="0.225" stop-color="#AF23FA"/>
<stop offset="0.4022" stop-color="#8F4BF4"/>
<stop offset="0.6097" stop-color="#6283ED"/>
<stop offset="0.84" stop-color="#2ACAE3"/>
<stop offset="1" stop-color="#00FFDB"/>
</linearGradient>
<linearGradient id="paint2_linear_830_17269" x1="40.562" y1="-33.7694" x2="40.562" y2="183.701" gradientUnits="userSpaceOnUse">
<stop stop-color="#CA01FF"/>
<stop offset="0.0851506" stop-color="#C30AFE"/>
<stop offset="0.225" stop-color="#AF23FA"/>
<stop offset="0.4022" stop-color="#8F4BF4"/>
<stop offset="0.6097" stop-color="#6283ED"/>
<stop offset="0.84" stop-color="#2ACAE3"/>
<stop offset="1" stop-color="#00FFDB"/>
</linearGradient>
<linearGradient id="paint3_linear_830_17269" x1="68.9036" y1="-33.7695" x2="68.9036" y2="183.701" gradientUnits="userSpaceOnUse">
<stop stop-color="#CA01FF"/>
<stop offset="0.0851506" stop-color="#C30AFE"/>
<stop offset="0.225" stop-color="#AF23FA"/>
<stop offset="0.4022" stop-color="#8F4BF4"/>
<stop offset="0.6097" stop-color="#6283ED"/>
<stop offset="0.84" stop-color="#2ACAE3"/>
<stop offset="1" stop-color="#00FFDB"/>
</linearGradient>
</defs>
</svg>
