<svg width="633" height="12" viewBox="0 0 633 12" fill="none" xmlns="http://www.w3.org/2000/svg">
<path d="M335.5 2.901C221.5 4.201 115.9 4.80095 26.1 4.60095C8.20001 4.60095 0 4.50097 0 4.30097C0 4.00097 6.79999 3.80095 63.3 3.10095C125.2 2.30095 168.1 1.90098 274.1 1.00098C405.2 -0.0990223 423.3 0.100978 423.3 2.50098C423.3 4.00098 417.5 5.00098 394.3 7.50098C379.1 9.20098 375 9.80099 379.4 9.70099C385.6 9.50099 474.5 6.20095 571.4 2.60095C601.4 1.50095 627.4 0.600953 629.2 0.600953C631 0.600953 632.5 0.800978 632.5 1.00098C632.5 1.80098 458 8.90095 384 11.101C344.9 12.301 342.4 11.301 375.4 7.60095C399.9 4.90095 412.5 3.10095 410 2.60095C407.6 2.10095 401.6 2.101 335.5 2.901Z" fill="url(#paint0_linear_857_12439)"/>
<defs>
<linearGradient id="paint0_linear_857_12439" x1="0.0072" y1="5.97956" x2="632.537" y2="5.97956" gradientUnits="userSpaceOnUse">
<stop stop-color="#CA01FF"/>
<stop offset="0.0851506" stop-color="#C30AFE"/>
<stop offset="0.225" stop-color="#AF23FA"/>
<stop offset="0.4022" stop-color="#8F4BF4"/>
<stop offset="0.6097" stop-color="#6283ED"/>
<stop offset="0.84" stop-color="#2ACAE3"/>
<stop offset="1" stop-color="#00FFDB"/>
</linearGradient>
</defs>
</svg>
