<svg width="163" height="49" viewBox="0 0 163 49" fill="none" xmlns="http://www.w3.org/2000/svg">
<path d="M161.6 43.1C161.6 45.6 159.5 47.7 157 47.7H6.59998C4.09998 47.7 2 45.6 2 43.1V6.50003C2 4.00003 4.09998 1.90002 6.59998 1.90002H157C159.5 1.90002 161.6 4.00003 161.6 6.50003V43.1Z" fill="white"/>
<path d="M157 48.8H6.59985C3.49985 48.8 0.899902 46.3 0.899902 43.1V6.50006C0.899902 3.40006 3.39985 0.800049 6.59985 0.800049H157C160.1 0.800049 162.7 3.30006 162.7 6.50006V43.1C162.7 46.3 160.2 48.8 157 48.8Z" fill="#A6A5A5"/>
<path d="M161.6 43.1C161.6 45.6 159.5 47.7 157 47.7H6.59998C4.09998 47.7 2 45.6 2 43.1V6.50003C2 4.00003 4.09998 1.90002 6.59998 1.90002H157C159.5 1.90002 161.6 4.00003 161.6 6.50003V43.1Z" fill="#010101"/>
<path opacity="0.1" d="M157 0.900024H76.5L108 48.8H157C160.1 48.8 162.7 46.3 162.7 43.1V6.50003C162.7 3.40003 160.2 0.900024 157 0.900024Z" fill="white"/>
<path d="M58.1 15.4001C58.1 16.3001 57.9 17.2002 57.3 17.7002C56.6 18.4002 55.8 18.8001 54.7 18.8001C53.6 18.8001 52.8 18.4002 52.1 17.7002C51.4 17.0002 51 16.2002 51 15.1002C51 14.0002 51.4 13.2002 52.1 12.5002C52.8 11.8002 53.6 11.4001 54.7 11.4001C55.2 11.4001 55.6 11.5001 56.1 11.8001C56.6 12.1001 56.9 12.3002 57.2 12.6002L56.6 13.2002C56.1 12.6002 55.5 12.4001 54.7 12.4001C54 12.4001 53.3 12.6002 52.8 13.2002C52.2 13.7002 52 14.4002 52 15.2002C52 16.0002 52.2 16.7002 52.8 17.2002C53.4 17.7002 54 18.0002 54.7 18.0002C55.5 18.0002 56.1 17.8002 56.7 17.2002C57.1 16.8002 57.3 16.4001 57.3 15.8001H54.7V14.9001H58.1V15.4001ZM63.5 12.4001H60.3V14.6002H63.2V15.4001H60.3V17.6002H63.5V18.5002H59.4V11.5002H63.5V12.4001ZM67.4 18.6002H66.5V12.4001H64.5V11.6002H69.4V12.4001H67.4V18.6002ZM72.8 18.6002V11.6002H73.7V18.6002H72.8ZM77.7 18.6002H76.8V12.4001H74.8V11.6002H79.6V12.4001H77.6V18.6002H77.7ZM88.8 17.7002C88.1 18.4002 87.3 18.8001 86.2 18.8001C85.1 18.8001 84.3 18.4002 83.6 17.7002C82.9 17.0002 82.5 16.2002 82.5 15.1002C82.5 14.0002 82.9 13.2002 83.6 12.5002C84.3 11.8002 85.1 11.4001 86.2 11.4001C87.3 11.4001 88.1 11.8002 88.8 12.5002C89.5 13.2002 89.9 14.0002 89.9 15.1002C89.9 16.2002 89.5 17.0002 88.8 17.7002ZM84.4 17.1002C84.9 17.6002 85.6 17.9001 86.3 17.9001C87 17.9001 87.7 17.7002 88.2 17.1002C88.7 16.6002 89 15.9002 89 15.1002C89 14.3002 88.8 13.6002 88.2 13.1002C87.7 12.6002 87 12.3001 86.3 12.3001C85.6 12.3001 84.9 12.5002 84.4 13.1002C83.9 13.6002 83.6 14.3002 83.6 15.1002C83.6 15.9002 83.8 16.7002 84.4 17.1002ZM91.2 18.6002V11.6002H92.3L95.7 17.1002V11.6002H96.6V18.6002H95.7L92.1 12.9001V18.6002H91.2Z" fill="white"/>
<path d="M82.3997 27.4001C79.5997 27.4001 77.3997 29.5001 77.3997 32.4001C77.3997 35.2001 79.5997 37.4001 82.3997 37.4001C85.1997 37.4001 87.3997 35.3001 87.3997 32.4001C87.3997 29.4001 85.1997 27.4001 82.3997 27.4001ZM82.3997 35.4001C80.8997 35.4001 79.5997 34.1001 79.5997 32.4001C79.5997 30.6001 80.8997 29.4001 82.3997 29.4001C83.8997 29.4001 85.1997 30.6001 85.1997 32.4001C85.1997 34.1001 83.8997 35.4001 82.3997 35.4001ZM71.4997 27.4001C68.6997 27.4001 66.4997 29.5001 66.4997 32.4001C66.4997 35.2001 68.6997 37.4001 71.4997 37.4001C74.2997 37.4001 76.4997 35.3001 76.4997 32.4001C76.4997 29.4001 74.2997 27.4001 71.4997 27.4001ZM71.4997 35.4001C69.9997 35.4001 68.6997 34.1001 68.6997 32.4001C68.6997 30.6001 69.9997 29.4001 71.4997 29.4001C72.9997 29.4001 74.2997 30.6001 74.2997 32.4001C74.2997 34.1001 72.9997 35.4001 71.4997 35.4001ZM58.4997 29.0001V31.1001H63.4997C63.3997 32.3001 62.8997 33.2001 62.2997 33.8001C61.5997 34.5001 60.3997 35.3001 58.3997 35.3001C55.1997 35.3001 52.8997 32.8001 52.8997 29.7001C52.8997 26.5001 55.3997 24.1001 58.3997 24.1001C59.9997 24.1001 61.2997 24.8001 62.2997 25.6001L63.7997 24.1001C62.4997 22.9001 60.8997 22.0001 58.4997 22.0001C54.2997 22.0001 50.6997 25.5001 50.6997 29.7001C50.6997 33.9001 54.2997 37.4001 58.4997 37.4001C60.7997 37.4001 62.4997 36.7001 63.8997 35.2001C65.2997 33.8001 65.7997 31.8001 65.7997 30.3001C65.7997 29.8001 65.7997 29.4001 65.6997 29.0001H58.4997ZM111.7 30.6001C111.2 29.4001 110.1 27.4001 107.5 27.4001C104.9 27.4001 102.8 29.4001 102.8 32.4001C102.8 35.2001 104.9 37.4001 107.7 37.4001C109.9 37.4001 111.3 36.0001 111.8 35.2001L110.2 34.0001C109.6 34.8001 108.9 35.4001 107.7 35.4001C106.5 35.4001 105.8 34.9001 105.2 33.9001L111.9 31.1001L111.7 30.6001ZM104.9 32.2001C104.9 30.3001 106.4 29.3001 107.5 29.3001C108.3 29.3001 109.1 29.8001 109.4 30.4001L104.9 32.2001ZM99.3997 37.0001H101.6V22.4001H99.3997V37.0001ZM95.7997 28.5001C95.1997 27.9001 94.2997 27.3001 93.0997 27.3001C90.5997 27.3001 88.2997 29.5001 88.2997 32.3001C88.2997 35.1001 90.4997 37.2001 93.0997 37.2001C94.2997 37.2001 95.1997 36.6001 95.6997 36.0001H95.7997V36.7001C95.7997 38.6001 94.6997 39.6001 93.0997 39.6001C91.7997 39.6001 90.8997 38.7001 90.5997 37.8001L88.6997 38.6001C89.2997 39.9001 90.6997 41.5001 93.1997 41.5001C95.7997 41.5001 97.8997 40.0001 97.8997 36.3001V27.4001H95.7997V28.5001ZM93.2997 35.4001C91.7997 35.4001 90.4997 34.1001 90.4997 32.4001C90.4997 30.6001 91.7997 29.4001 93.2997 29.4001C94.7997 29.4001 95.9997 30.7001 95.9997 32.4001C95.9997 34.1001 94.7997 35.4001 93.2997 35.4001ZM121.8 22.4001H116.5V37.0001H118.7V31.5001H121.7C124.2 31.5001 126.5 29.7001 126.5 26.9001C126.5 24.1001 124.3 22.4001 121.8 22.4001ZM122 29.4001H118.8V24.4001H122C123.6 24.4001 124.6 25.8001 124.6 26.9001C124.4 28.1001 123.5 29.4001 122 29.4001ZM135.4 27.3001C133.8 27.3001 132.1 28.0001 131.5 29.5001L133.5 30.3001C134 29.5001 134.7 29.2001 135.5 29.2001C136.7 29.2001 137.7 29.9001 137.8 31.1001V31.2001C137.4 31.0001 136.5 30.6001 135.6 30.6001C133.5 30.6001 131.4 31.8001 131.4 33.9001C131.4 35.9001 133.2 37.2001 135 37.2001C136.5 37.2001 137.2 36.5001 137.8 35.8001H137.9V37.0001H140V31.4001C139.9 28.8001 137.9 27.3001 135.4 27.3001ZM135.2 35.4001C134.5 35.4001 133.4 35.0001 133.4 34.1001C133.4 32.9001 134.7 32.6001 135.7 32.6001C136.6 32.6001 137.1 32.8001 137.7 33.1001C137.5 34.5001 136.4 35.4001 135.2 35.4001ZM147.5 27.7001L145 34.0001H144.9L142.3 27.7001H140L143.9 36.6001L141.7 41.5001H143.9L149.9 27.7001H147.5ZM127.8 37.0001H130V22.4001H127.8V37.0001Z" fill="white"/>
<path d="M18.3999 10.6001C17.9999 11.0001 17.8999 11.5001 17.8999 12.2001V38.1001C17.8999 38.8001 18.0999 39.4001 18.4999 39.7001L18.5999 39.8001L33.0999 25.3001V25.1001L18.3999 10.6001Z" fill="url(#paint0_linear_860_25673)"/>
<path d="M37.8 30.3L33 25.5001V25.1001L37.8 20.3L37.9 20.4001L43.6 23.7001C45.2 24.6001 45.2 26.2001 43.6 27.1001L37.8 30.3Z" fill="url(#paint1_linear_860_25673)"/>
<path d="M37.8999 30.2001L32.9999 25.3L18.3999 39.9001C18.9999 40.5001 19.7999 40.5001 20.8999 40.0001L37.8999 30.2001Z" fill="url(#paint2_linear_860_25673)"/>
<path d="M37.8998 20.3001L20.7998 10.6001C19.6998 10.0001 18.8998 10.1001 18.2998 10.7001L32.8998 25.2001L37.8998 20.3001Z" fill="url(#paint3_linear_860_25673)"/>
<defs>
<linearGradient id="paint0_linear_860_25673" x1="25.5296" y1="10.5237" x2="25.5296" y2="39.6721" gradientUnits="userSpaceOnUse">
<stop stop-color="#267CAF"/>
<stop offset="0.286" stop-color="#4A92B4"/>
<stop offset="0.767" stop-color="#79BCBA"/>
<stop offset="1" stop-color="#88CEBC"/>
</linearGradient>
<linearGradient id="paint1_linear_860_25673" x1="40.6048" y1="21.731" x2="37.05" y2="29.7715" gradientUnits="userSpaceOnUse">
<stop stop-color="#F48879"/>
<stop offset="0.119" stop-color="#F5907A"/>
<stop offset="0.713" stop-color="#FBB777"/>
<stop offset="1" stop-color="#FDC874"/>
</linearGradient>
<linearGradient id="paint2_linear_860_25673" x1="35.318" y1="27.8442" x2="19.3231" y2="40.7791" gradientUnits="userSpaceOnUse">
<stop stop-color="#EB413D"/>
<stop offset="0.167" stop-color="#D94452"/>
<stop offset="0.575" stop-color="#AF487A"/>
<stop offset="0.862" stop-color="#954B92"/>
<stop offset="1" stop-color="#894A9C"/>
</linearGradient>
<linearGradient id="paint3_linear_860_25673" x1="20.4584" y1="11.3144" x2="35.7577" y2="22.9977" gradientUnits="userSpaceOnUse">
<stop stop-color="#54C0AC"/>
<stop offset="1" stop-color="#DDE79A"/>
</linearGradient>
</defs>
</svg>
