<svg width="91" height="91" viewBox="0 0 91 91" fill="none" xmlns="http://www.w3.org/2000/svg">
<path d="M47.4997 0.5C48.9997 1.5 49.4996 4.30002 50.5996 5.40002C51.4996 6.30002 54.8997 7.29999 55.2997 8.29999C56.2997 10.6 51.6996 11.4 50.5996 12.5C49.6996 13.4 48.6997 16.8 47.6997 17.2C45.3997 18.2 44.5997 13.5 43.3997 12.4C42.4997 11.6 39.0997 10.6 38.6997 9.5C37.6997 7.2 42.3997 6.40001 43.4997 5.20001C44.4997 4.10001 44.9997 1.29999 46.4997 0.299988H47.4997V0.5ZM47.1997 5C46.8997 4.7 46.8997 5.10001 46.7997 5.20001C46.3997 5.80001 45.9997 7.00002 45.4997 7.40002C44.9997 7.90002 43.7996 8.39998 43.0996 8.59998C42.9996 8.99998 43.1997 8.9 43.2997 9C43.8997 9.4 45.0997 9.79999 45.4997 10.3C45.9997 10.8 46.4997 12 46.6997 12.7C47.0997 12.8 46.9996 12.6 47.0996 12.5C47.4996 11.9 47.8997 10.7 48.3997 10.3C48.8997 9.79999 50.0997 9.29998 50.7997 9.09998C50.8997 8.69998 50.6996 8.80001 50.5996 8.70001C49.9996 8.30001 48.7997 7.90002 48.3997 7.40002C47.9997 7.00002 47.2997 5.2 47.1997 5Z" fill="url(#paint0_linear_830_17226)"/>
<path d="M14.5996 8.20001C14.5996 11 12.3996 13.2 9.59961 13.2C6.79961 13.2 4.59961 11 4.59961 8.20001C4.59961 5.40001 6.79961 3.20001 9.59961 3.20001C12.3996 3.20001 14.5996 5.50001 14.5996 8.20001ZM11.6996 8.20001C11.6996 7.10001 10.7996 6.09998 9.59961 6.09998C8.49961 6.09998 7.49963 7.00001 7.49963 8.20001C7.49963 9.30001 8.39961 10.3 9.59961 10.3C10.7996 10.3 11.6996 9.40001 11.6996 8.20001Z" fill="url(#paint1_linear_830_17226)"/>
<path d="M3.19989 33.8H0.399902V36.8H3.19989V33.8Z" fill="url(#paint2_linear_830_17226)"/>
<path d="M24.3997 6.09998H21.5996V8.90002H24.3997V6.09998Z" fill="url(#paint3_linear_830_17226)"/>
<path d="M77.9997 6.09998H75.1997V8.90002H77.9997V6.09998Z" fill="url(#paint4_linear_830_17226)"/>
<path d="M90.7996 90.8H87.9996V53.5L71.1996 39.7C70.7996 42.5 71.2996 45.4 73.0996 47.6C74.1996 49 80.6997 54.3 80.8997 55.2C80.9997 55.9 80.9997 59.1 80.8997 60C80.6997 61.5 79.4997 61.2 78.3997 61.6C73.7997 63.3 74.4996 70 75.1996 73.9L72.3997 74.4C71.8997 72.3 71.7996 70.2 71.6996 68H69.3997C69.5997 72.6 70.1996 78 74.4996 80.6C74.9996 80.9 76.5996 81.3 76.5996 82V90.9H73.7996V83.6C67.9996 80.7 66.3996 74 66.5996 68C62.9996 68.2 59.4996 69.2 56.2996 70.9C55.6996 71.2 53.0996 72.8 52.7996 73.2C52.1996 74.2 53.3996 76.5 51.4996 76.8L42.1996 76.7C40.6996 76.2 41.6996 74.1 41.1996 73.4C41.0996 73.3 38.5996 72 38.1996 71.8C33.9996 69.9 29.1996 68.6 24.5996 68.2C24.5996 73.8 22.9997 80.8 17.3997 83.2V90.8H14.3997V82C14.3997 81.1 15.9996 80.7 16.5996 80.4C20.7996 77.9 21.6996 72.6 21.5996 68H19.2996C19.4996 70.1 18.9996 72.1 18.7996 74.2L15.9996 73.7C16.3996 70.1 17.3996 63.5 13.1996 61.6C11.8996 61 10.3996 61.5 10.1996 59.7C10.0996 58.8 10.0996 56.3 10.1996 55.5C10.2996 55.1 10.4996 54.6 10.7996 54.3C13.3996 51.4 18.0996 48.8 19.4996 45C20.0996 43.4 20.2997 41.5 19.8997 39.8C19.5997 39.7 19.4997 39.9 19.3997 40.1C14.0997 44.2 9.09962 48.9 3.79962 53.1L3.39966 53.3V90.9H0.599609V52.2L10.3997 32.6L10.4996 17C11.5996 15.3 13.1996 16.7 14.6996 16.9V14.3C14.6996 14.1 15.2996 13.5 15.5996 13.4C15.8996 13.3 17.5996 13.1 17.9996 13.1C18.4996 13.1 18.8997 13.3 19.3997 13.3C29.1997 13.3 38.3996 15 46.9996 20C51.9996 16.9 57.3996 14.3 63.2996 13.4C66.7996 12.8 71.8996 12.5 75.2996 13.3C75.7996 13.4 76.8997 13.8 76.8997 14.4V17C78.2997 16.8 80.0996 15.4 81.0996 17.2L81.1996 32.8L90.9996 52.5V90.8H90.7996ZM73.7996 15.8C64.7996 14.8 55.6997 17.2 48.3997 22.4V65.4C49.5997 64.9 50.7996 64 51.9996 63.4C58.5996 60.1 66.4996 58.5 73.7996 59.6V52.3C70.9996 49.9 68.5996 47.3 68.1996 43.4C67.9996 41.9 68.1996 36.6 69.7996 35.9C71.4996 35.2 72.3996 37.3 73.7996 37.9V15.8ZM45.5996 65.7V22.6C42.9996 21 40.0996 19.7 37.2996 18.8C30.8996 16.6 24.1997 16 17.3997 16V37.9C19.7997 36 21.3996 34.1 22.5996 38.3C24.0996 44.1 21.7997 48.7 17.3997 52.3V59.8C22.4997 59.7 27.6996 60 32.7996 61.1C37.1996 62 41.4996 63.7 45.5996 65.7ZM13.0996 19.5V41.4C13.5996 40.9 14.4996 40.7 14.4996 39.9C14.3996 33.2 14.5997 26.5 14.3997 19.8L13.0996 19.5ZM78.0996 19.5C77.6996 19.6 76.6996 19.7 76.6996 20.1V39.9C76.7996 40.7 77.5996 41 78.0996 41.4V19.5ZM10.2996 43.8C10.5996 42.9 10.0996 40.3 10.2996 39.1L6.39966 46.8C6.59966 46.9 6.99965 46.5 7.19965 46.4C7.59965 46 10.2996 44 10.2996 43.8ZM80.8997 39.1V43.8C80.8997 44 83.7996 46.3 84.2996 46.6C84.3996 46.7 84.6996 47.1 84.7996 46.8L80.8997 39.1ZM14.4996 59V54.8C13.7996 55.4 13.1996 55.7 13.0996 56.6C12.9996 58.2 12.9996 58.7 14.4996 59ZM76.5996 55V59.1C76.7996 58.9 77.8996 58.6 77.9996 58.5C78.0996 58.4 78.0996 56.4 77.9996 56.2C77.9996 55.9 76.8996 55.2 76.5996 55ZM44.1996 73.8C44.3996 74 49.0996 73.6 49.7996 73.8C49.2996 71.1 52.6996 69.2 54.7996 68.1C60.0996 65.2 66.1996 64.3 72.1996 65C72.1996 64.1 72.6996 63.2 73.0996 62.4C64.0996 61.4 54.8996 64.2 47.6996 69.5H46.2996C41.8996 67 37.0996 65 32.1996 63.9C27.5996 62.9 22.7996 62.7 18.0996 62.5L19.0996 65.2C25.8996 64.8 32.7996 66.1 38.9996 68.9C40.4996 69.5 43.6996 70.9 44.0996 72.5C44.1996 72.8 44.0996 73.8 44.1996 73.8Z" fill="url(#paint5_linear_830_17226)"/>
<path d="M64.6996 78.7C65.7996 79.8 71.6996 81.2 68.8996 83.5C67.8996 84.4 65.4996 85.1 64.6996 85.9C63.7996 86.8 62.7996 90.3 61.6996 90.7C59.3996 91.4 58.7996 86.9 57.3996 85.8C56.4996 85 53.0996 84 52.6996 82.9C51.9996 80.7 56.2996 80 57.4996 78.8C58.3996 77.9 59.3996 74.3 60.5996 74C62.7996 73.2 63.4996 77.5 64.6996 78.7ZM61.2996 78.4C60.8996 78.3 60.9996 78.5 60.8996 78.6C60.4996 79.2 60.0996 80.4 59.5996 80.8C59.0996 81.3 57.8996 81.8 57.1996 82C57.0996 82.4 57.2996 82.3 57.3996 82.4C57.9996 82.8 59.1996 83.2 59.5996 83.7C60.0996 84.2 60.5996 85.4 60.7996 86.1C61.1996 86.2 61.0996 86 61.1996 85.9C61.5996 85.3 61.9996 84.1 62.4996 83.7C62.9996 83.2 64.1996 82.7 64.8996 82.5C64.9996 82.1 64.7996 82.2 64.6996 82.1C64.0996 81.7 62.8996 81.3 62.4996 80.8C62.0996 80.3 61.4996 79.1 61.2996 78.4Z" fill="url(#paint6_linear_830_17226)"/>
<path d="M37.1997 77.4C37.1997 80.2 34.9997 82.4 32.1997 82.4C29.3997 82.4 27.1997 80.2 27.1997 77.4C27.1997 74.6 29.3997 72.4 32.1997 72.4C34.8997 72.4 37.1997 74.6 37.1997 77.4ZM34.2997 77.4C34.2997 76.3 33.3997 75.3 32.1997 75.3C31.0997 75.3 30.0997 76.2 30.0997 77.4C30.0997 78.5 30.9997 79.5 32.1997 79.5C33.2997 79.4 34.2997 78.5 34.2997 77.4Z" fill="url(#paint7_linear_830_17226)"/>
<path d="M44.1994 82.3H41.3994V85.1H44.1994V82.3Z" fill="url(#paint8_linear_830_17226)"/>
<path d="M42.0995 28.7L40.7995 31.3C37.9995 29.9 35.1995 28.7 32.0995 28C28.6995 27.2 25.2995 27 21.8995 27.2C21.7995 26.6 21.0995 24.4 21.9995 24.2C22.9995 24 25.9995 24.1 27.0995 24.2C32.2995 24.6 37.3995 26.3 42.0995 28.7Z" fill="url(#paint9_linear_830_17226)"/>
<path d="M42.0995 35.7L40.7995 38.3C37.9995 36.9 35.1995 35.7 32.0995 35C28.6995 34.2 25.2995 34 21.8995 34.2C21.7995 33.6 21.0995 31.4 21.9995 31.2C22.9995 31 25.9995 31.1 27.0995 31.2C32.2995 31.6 37.3995 33.4 42.0995 35.7Z" fill="url(#paint10_linear_830_17226)"/>
<path d="M71.1997 52.7C71.3997 52.9 70.8997 55.5 70.7997 55.5C64.1997 55.1 57.7997 56.4 51.9997 59.6C51.8997 59.1 50.7997 57.8 50.6997 57.4C50.6997 57.1 50.9997 57 51.0997 56.8C51.8997 56.2 53.6997 55.5 54.6997 55.1C59.6997 53 65.5997 52 71.1997 52.7Z" fill="url(#paint11_linear_830_17226)"/>
<path d="M70.7996 26C64.1996 25.4 57.5997 27 51.8997 30.1L50.5996 27.5C54.9996 25.1 60.2996 23.3 65.2996 23C65.9996 23 70.7996 22.9 70.9996 23.1C71.3996 23.4 70.8996 25.5 70.7996 26Z" fill="url(#paint12_linear_830_17226)"/>
<path d="M69.5998 30.1H66.7998V32.9H69.5998V30.1Z" fill="url(#paint13_linear_830_17226)"/>
<defs>
<linearGradient id="paint0_linear_830_17226" x1="47.0067" y1="-17.7635" x2="47.0067" y2="168.196" gradientUnits="userSpaceOnUse">
<stop stop-color="#CA01FF"/>
<stop offset="0.0851506" stop-color="#C30AFE"/>
<stop offset="0.225" stop-color="#AF23FA"/>
<stop offset="0.4022" stop-color="#8F4BF4"/>
<stop offset="0.6097" stop-color="#6283ED"/>
<stop offset="0.84" stop-color="#2ACAE3"/>
<stop offset="1" stop-color="#00FFDB"/>
</linearGradient>
<linearGradient id="paint1_linear_830_17226" x1="9.61001" y1="-17.7635" x2="9.61001" y2="168.196" gradientUnits="userSpaceOnUse">
<stop stop-color="#CA01FF"/>
<stop offset="0.0851506" stop-color="#C30AFE"/>
<stop offset="0.225" stop-color="#AF23FA"/>
<stop offset="0.4022" stop-color="#8F4BF4"/>
<stop offset="0.6097" stop-color="#6283ED"/>
<stop offset="0.84" stop-color="#2ACAE3"/>
<stop offset="1" stop-color="#00FFDB"/>
</linearGradient>
<linearGradient id="paint2_linear_830_17226" x1="1.84849" y1="-17.7635" x2="1.84849" y2="168.196" gradientUnits="userSpaceOnUse">
<stop stop-color="#CA01FF"/>
<stop offset="0.0851506" stop-color="#C30AFE"/>
<stop offset="0.225" stop-color="#AF23FA"/>
<stop offset="0.4022" stop-color="#8F4BF4"/>
<stop offset="0.6097" stop-color="#6283ED"/>
<stop offset="0.84" stop-color="#2ACAE3"/>
<stop offset="1" stop-color="#00FFDB"/>
</linearGradient>
<linearGradient id="paint3_linear_830_17226" x1="23.0166" y1="-17.7639" x2="23.0166" y2="168.199" gradientUnits="userSpaceOnUse">
<stop stop-color="#CA01FF"/>
<stop offset="0.0851506" stop-color="#C30AFE"/>
<stop offset="0.225" stop-color="#AF23FA"/>
<stop offset="0.4022" stop-color="#8F4BF4"/>
<stop offset="0.6097" stop-color="#6283ED"/>
<stop offset="0.84" stop-color="#2ACAE3"/>
<stop offset="1" stop-color="#00FFDB"/>
</linearGradient>
<linearGradient id="paint4_linear_830_17226" x1="76.6434" y1="-17.7639" x2="76.6434" y2="168.199" gradientUnits="userSpaceOnUse">
<stop stop-color="#CA01FF"/>
<stop offset="0.0851506" stop-color="#C30AFE"/>
<stop offset="0.225" stop-color="#AF23FA"/>
<stop offset="0.4022" stop-color="#8F4BF4"/>
<stop offset="0.6097" stop-color="#6283ED"/>
<stop offset="0.84" stop-color="#2ACAE3"/>
<stop offset="1" stop-color="#00FFDB"/>
</linearGradient>
<linearGradient id="paint5_linear_830_17226" x1="45.5963" y1="-17.7635" x2="45.5963" y2="168.196" gradientUnits="userSpaceOnUse">
<stop stop-color="#CA01FF"/>
<stop offset="0.0851506" stop-color="#C30AFE"/>
<stop offset="0.225" stop-color="#AF23FA"/>
<stop offset="0.4022" stop-color="#8F4BF4"/>
<stop offset="0.6097" stop-color="#6283ED"/>
<stop offset="0.84" stop-color="#2ACAE3"/>
<stop offset="1" stop-color="#00FFDB"/>
</linearGradient>
<linearGradient id="paint6_linear_830_17226" x1="61.1526" y1="-17.7636" x2="61.1526" y2="168.196" gradientUnits="userSpaceOnUse">
<stop stop-color="#CA01FF"/>
<stop offset="0.0851506" stop-color="#C30AFE"/>
<stop offset="0.225" stop-color="#AF23FA"/>
<stop offset="0.4022" stop-color="#8F4BF4"/>
<stop offset="0.6097" stop-color="#6283ED"/>
<stop offset="0.84" stop-color="#2ACAE3"/>
<stop offset="1" stop-color="#00FFDB"/>
</linearGradient>
<linearGradient id="paint7_linear_830_17226" x1="32.1896" y1="-17.7635" x2="32.1896" y2="168.196" gradientUnits="userSpaceOnUse">
<stop stop-color="#CA01FF"/>
<stop offset="0.0851506" stop-color="#C30AFE"/>
<stop offset="0.225" stop-color="#AF23FA"/>
<stop offset="0.4022" stop-color="#8F4BF4"/>
<stop offset="0.6097" stop-color="#6283ED"/>
<stop offset="0.84" stop-color="#2ACAE3"/>
<stop offset="1" stop-color="#00FFDB"/>
</linearGradient>
<linearGradient id="paint8_linear_830_17226" x1="42.7736" y1="-17.7631" x2="42.7736" y2="168.196" gradientUnits="userSpaceOnUse">
<stop stop-color="#CA01FF"/>
<stop offset="0.0851506" stop-color="#C30AFE"/>
<stop offset="0.225" stop-color="#AF23FA"/>
<stop offset="0.4022" stop-color="#8F4BF4"/>
<stop offset="0.6097" stop-color="#6283ED"/>
<stop offset="0.84" stop-color="#2ACAE3"/>
<stop offset="1" stop-color="#00FFDB"/>
</linearGradient>
<linearGradient id="paint9_linear_830_17226" x1="31.7461" y1="-17.7634" x2="31.7461" y2="168.195" gradientUnits="userSpaceOnUse">
<stop stop-color="#CA01FF"/>
<stop offset="0.0851506" stop-color="#C30AFE"/>
<stop offset="0.225" stop-color="#AF23FA"/>
<stop offset="0.4022" stop-color="#8F4BF4"/>
<stop offset="0.6097" stop-color="#6283ED"/>
<stop offset="0.84" stop-color="#2ACAE3"/>
<stop offset="1" stop-color="#00FFDB"/>
</linearGradient>
<linearGradient id="paint10_linear_830_17226" x1="31.7461" y1="-17.7633" x2="31.7461" y2="168.195" gradientUnits="userSpaceOnUse">
<stop stop-color="#CA01FF"/>
<stop offset="0.0851506" stop-color="#C30AFE"/>
<stop offset="0.225" stop-color="#AF23FA"/>
<stop offset="0.4022" stop-color="#8F4BF4"/>
<stop offset="0.6097" stop-color="#6283ED"/>
<stop offset="0.84" stop-color="#2ACAE3"/>
<stop offset="1" stop-color="#00FFDB"/>
</linearGradient>
<linearGradient id="paint11_linear_830_17226" x1="60.8729" y1="-17.7632" x2="60.8729" y2="168.195" gradientUnits="userSpaceOnUse">
<stop stop-color="#CA01FF"/>
<stop offset="0.0851506" stop-color="#C30AFE"/>
<stop offset="0.225" stop-color="#AF23FA"/>
<stop offset="0.4022" stop-color="#8F4BF4"/>
<stop offset="0.6097" stop-color="#6283ED"/>
<stop offset="0.84" stop-color="#2ACAE3"/>
<stop offset="1" stop-color="#00FFDB"/>
</linearGradient>
<linearGradient id="paint12_linear_830_17226" x1="60.8477" y1="-17.7635" x2="60.8477" y2="168.196" gradientUnits="userSpaceOnUse">
<stop stop-color="#CA01FF"/>
<stop offset="0.0851506" stop-color="#C30AFE"/>
<stop offset="0.225" stop-color="#AF23FA"/>
<stop offset="0.4022" stop-color="#8F4BF4"/>
<stop offset="0.6097" stop-color="#6283ED"/>
<stop offset="0.84" stop-color="#2ACAE3"/>
<stop offset="1" stop-color="#00FFDB"/>
</linearGradient>
<linearGradient id="paint13_linear_830_17226" x1="68.1761" y1="-17.7644" x2="68.1761" y2="168.198" gradientUnits="userSpaceOnUse">
<stop stop-color="#CA01FF"/>
<stop offset="0.0851506" stop-color="#C30AFE"/>
<stop offset="0.225" stop-color="#AF23FA"/>
<stop offset="0.4022" stop-color="#8F4BF4"/>
<stop offset="0.6097" stop-color="#6283ED"/>
<stop offset="0.84" stop-color="#2ACAE3"/>
<stop offset="1" stop-color="#00FFDB"/>
</linearGradient>
</defs>
</svg>
