<svg width="1440" height="53" viewBox="0 0 1440 53" fill="none" xmlns="http://www.w3.org/2000/svg">
<g clip-path="url(#clip0_909_419)">
<mask id="mask0_909_419" style="mask-type:luminance" maskUnits="userSpaceOnUse" x="-686" y="7" width="2813" height="38">
<path d="M2126.9 7.6001H-686V44.5H2126.9V7.6001Z" fill="white"/>
</mask>
<g mask="url(#mask0_909_419)">
<g opacity="0.5">
<path d="M16424.5 -84.7998H16413.3C16323.5 -72.2998 16197.2 -59.9997 16014.7 -47.8997C15922.6 -41.8997 15817.3 -35.9997 15694.7 -30.1997C15572.4 -24.3997 15433.4 -18.7997 15273.5 -13.3997C15114 -7.99966 14934.8 -2.89985 14734.3 1.90015C14685.5 3.10015 14631.8 4.20015 14580 5.40015L14560.5 5.80029L14540.2 6.2002L14499.5 7.00024C14472.2 7.60024 14445.7 8.1002 14417.9 8.7002L14333.5 10.3003C14319.4 10.6003 14305.5 10.8003 14291.2 11.1003L14247.5 11.9001L14160.2 13.4001L14070.1 14.9001C13948.6 16.8001 13825.9 18.7003 13692 20.3003C13657.7 20.7003 13623.6 21.0003 13587 21.3003C13550.6 21.6003 13513.7 21.9003 13475.9 22.1003C13470.9 22.1003 13466 22.2002 13461 22.2002C13447 22.3002 13432.7 22.4001 13418.3 22.4001C13398.9 22.5001 13379.2 22.6003 13359.5 22.6003C13340 22.7003 13320.6 22.8003 13300.7 22.8003C13280.9 22.9003 13260.9 22.9002 13240.9 23.0002C13200.8 23.1002 13161.4 23.2003 13121.8 23.3003C13082 23.4003 13042.5 23.4002 13004 23.5002C12965.5 23.6002 12926.7 23.7003 12889.3 23.8003C12870.6 23.9003 12852 23.9002 12833.8 24.0002C12815.1 24.1002 12796.9 24.1002 12778.5 24.2002C12760.4 24.3002 12742.3 24.4002 12724.6 24.5002L12671.4 24.8003C12636 25.0003 12601.3 25.2002 12567 25.5002L12515.4 25.9001L12463.1 26.2002L12358.6 26.9001C12078.5 28.7001 11789.4 30.1003 11495 31.3003L11384.3 31.7002C11347.4 31.9002 11310.1 32.0003 11272.9 32.1003L11161.2 32.5002L11048.6 32.9001C11011.1 33.0001 10973.7 33.2003 10935.9 33.3003C10898.1 33.4003 10860.2 33.5003 10822.5 33.6003C10747 33.8003 10670.7 34.0002 10594.6 34.2002C10289.6 34.9002 9980.3 35.4003 9669.5 35.6003C9358.7 35.8003 9046.2 35.7001 8734.3 35.4001C8422.3 35.1001 8111.2 34.4003 7800.9 33.6003C7490.6 32.8003 7180.4 32.0002 6871 31.0002L6406.8 29.6003L5943 28.1003L5015.7 25.1003C4397.5 23.1003 3778.1 21.2002 3155.6 19.7002C2533.2 18.3002 1907.1 17.3003 1280 17.3003C653.2 17.3003 24.8004 18.2002 -591.1 20.7002C-898.7 21.9002 -1203.3 23.5002 -1500.6 25.5002L-1611.7 26.3003C-1648.7 26.6003 -1685.9 26.8003 -1722.4 27.1003L-1832.2 28.0002L-1887.2 28.4001C-1905.3 28.5001 -1923.2 28.7001 -1941.3 28.9001L-2049.5 29.8003L-2103.6 30.3003L-2156.8 30.8003C-2228.2 31.5003 -2298.5 32.2001 -2368.9 32.9001C-2649.6 35.7001 -2922.1 38.8003 -3202.3 41.6003C-3481.8 44.4003 -3768 46.9001 -4062.1 48.9001C-4135.7 49.4001 -4209.9 49.9003 -4283.9 50.3003C-4358.5 50.7003 -4433.2 51.2003 -4508 51.6003L-4734 52.7002L-4961.9 53.6003L-5075.8 54.1003C-5113.9 54.3003 -5152.3 54.4002 -5190.5 54.5002L-5420 55.2002C-5458.1 55.3002 -5496.7 55.4002 -5535.2 55.5002L-5650.4 55.7002C-5727.4 55.9002 -5803.8 56.0003 -5881.1 56.1003L-6112.2 56.4001C-6150.5 56.5001 -6189.2 56.5002 -6227.7 56.5002H-6343.2H-6458.5H-6487.4H-6516.3H-6574L-6804.2 56.4001C-7111 56.0001 -7415.7 55.4003 -7716.5 54.3003C-8017.1 53.2003 -8313.8 51.8002 -8604.4 50.0002C-8876.3 48.3002 -9143.6 46.4002 -9402.5 44.0002C-9420 43.8002 -9437.5 43.7002 -9455 43.5002L-9723.3 65.2002C-9639.8 65.3002 -9557.1 65.4002 -9474.6 65.5002C-9391.8 65.6002 -9309.1 65.7003 -9227 65.8003C-9144.5 65.9003 -9062.1 66.0002 -8980.2 66.0002C-8898.3 66.1002 -8815.7 66.1002 -8734.1 66.2002C-8406.2 66.4002 -8080.3 66.4002 -7756.4 66.2002C-7432.1 66.0002 -7110.4 65.5003 -6791.1 64.8003C-6631.6 64.4003 -6472.5 64.0002 -6314.6 63.5002L-6196.2 63.1003C-6156.7 63.0003 -6117.2 62.9002 -6078 62.7002L-5843 61.8003C-5764.6 61.5003 -5687.1 61.1003 -5609.4 60.8003L-5492.9 60.3003C-5454.3 60.1003 -5415.3 60.0003 -5377 59.8003L-5146.5 58.6003C-5108.3 58.4003 -5069.7 58.2002 -5031.6 58.0002L-4989 57.7002L-4917.7 57.3003L-4690.3 55.9001L-4464.9 54.4001L-4241.5 52.8003C-4167.7 52.2003 -4094 51.7003 -4020.6 51.1003C-3874.4 49.9003 -3729.3 48.7003 -3587 47.3003C-3444 46.0003 -3304.3 44.5002 -3165.6 43.0002C-3027.4 41.5002 -2891.4 39.9001 -2755 38.4001C-2619 36.8001 -2482.9 35.3003 -2345.6 33.8003C-2208.3 32.3003 -2067.6 30.9002 -1925 29.7002C-1907.2 29.5002 -1889.6 29.4002 -1871.6 29.2002L-1817.5 28.8003L-1709.2 27.9001C-1673.3 27.6001 -1636.6 27.3003 -1599.9 27.1003L-1489.8 26.3003C-1195 24.2003 -892.5 22.6001 -586 21.4001C-279.5 20.2001 44.5004 39.9001 355.9 39.4001C667.5 38.9001 692.3 -9.19966 1279.3 18.1003C1560.9 31.2003 1904.6 18.4003 2216.8 18.8003C2529 19.2003 2840.5 19.8002 3151.5 20.5002C3773.5 21.9002 4392.7 23.8003 5010.3 25.8003C5319 26.9003 5627.6 27.9002 5935.7 29.0002L6860.4 32.3003C7168.9 33.4003 7477.4 34.5002 7787 35.5002L8717.1 38.5002C9027.9 39.5002 9339.5 40.5001 9654.2 41.4001C9968.5 42.3001 10286 43.0001 10606.9 43.4001C10687.2 43.5001 10767.6 43.6003 10848.2 43.6003C10888.6 43.6003 10929 43.6002 10969.4 43.7002C11009.8 43.7002 11050.2 43.7002 11090.7 43.7002H11212.3L11334 43.6003C11374.7 43.6003 11415.2 43.5002 11455.9 43.5002L11577.9 43.3003C11740.6 43.0003 11903.3 42.6002 12065.5 42.0002C12106.2 41.9002 12146.4 41.7002 12186.8 41.5002C12227.2 41.3002 12267.7 41.2002 12308 41.0002C12388.2 40.6002 12468.8 40.2002 12548.4 39.7002L12667.7 39.0002L12727.2 38.6003L12786.1 38.2002C12825.5 37.9002 12864.4 37.6003 12902.5 37.3003C12940.8 37.0003 12977.4 36.5003 13013.9 36.1003C13031.8 35.9003 13050.1 35.7001 13067.7 35.4001C13085.2 35.2001 13102.4 34.9002 13119.6 34.7002C13153.6 34.2002 13187.4 33.7003 13219.3 33.1003C13251.4 32.5003 13282.4 31.9003 13313.3 31.3003C13343.9 30.7003 13373.5 30.0001 13403 29.4001C13417.7 29.1001 13432.7 28.8002 13447.2 28.5002C13451.6 28.4002 13456.1 28.3002 13460.8 28.2002C13470.7 28.0002 13480.8 27.8003 13490.8 27.6003C13519.4 27.0003 13549.4 26.4003 13578.3 25.8003C13607.3 25.2003 13637.2 24.7003 13667.5 24.1003L13713 23.3003C13728.2 23.0003 13743.6 22.8002 13759.4 22.5002C13822.7 21.5002 13886.8 20.6002 13950.5 19.7002L14043.7 18.2002L14090.2 17.5002L14135.3 16.7002L14225.4 15.1003L14312.4 13.5002L14356 12.7002C14370.3 12.4002 14384 12.1001 14398 11.9001L14481.8 10.2002C14509.5 9.6002 14535.7 9.00024 14562.7 8.50024L14623.1 7.2002L14642.3 6.7002C14693.2 5.5002 14746.3 4.30024 14794.2 3.00024C14991.6 -1.89976 15167.4 -7.19971 15322.3 -12.6997C15477.1 -18.1997 15612.3 -23.8998 15730.1 -29.7998C15847.8 -35.6998 15949.1 -41.5997 16037.7 -47.6997L16101.3 -52.2998L16159.3 -56.8997C16179.6 -58.3997 16195.9 -59.9998 16213.4 -61.4998C16230.3 -62.9998 16249 -64.5999 16263.4 -66.0999L16309.5 -70.6997C16323.8 -72.2997 16336.6 -73.7997 16350.3 -75.3997L16370.6 -77.6997L16388.5 -79.9998L16424.5 -84.7998Z" fill="#D1C2F9"/>
</g>
</g>
</g>
<defs>
<clipPath id="clip0_909_419">
<rect width="1440" height="53" fill="white"/>
</clipPath>
</defs>
</svg>
