<svg width="88" height="88" viewBox="0 0 88 88" fill="none" xmlns="http://www.w3.org/2000/svg">
<path d="M52.2 4.49999C56.2 8.49999 56.8 15.2 53.2 19.6L53.3 19.8L68.6 35C74.5 30.4 83.5 32.6999 86.3 39.6999C90.7 50.5999 78.3 60.2 68.9 53.5L68.7 53.6L53.9 69.1C53.7 69.5 54.6 70.7 54.8 71.3C60.5 85.9 39.2 93.9 33.4 80.3C32.4 78 32.5 75.8 32.7 73.3L22 68C16.9 75.5 5.2 74.3 1.8 65.9C-2.3 56 7.90001 46.5 17.5 51L22.2 43.4L17.2 34.6999C11.2 37.2999 4.1 34.4 1.8 28.3C-1.9 18.7 7.70003 9.49999 17.2 13.5C19.7 14.5 21.4 16.5999 22.9 18.6999L32.7 15.1999C33.1 14.8999 32.7 14.2 32.7 13.8C32.2 2.80004 44.4 -3.30001 52.2 4.49999ZM52.6 12.6999C52.6 7.99994 48.8 4.19994 44.1 4.19994C39.4 4.19994 35.6 7.99994 35.6 12.6999C35.6 17.3999 39.4 21.1999 44.1 21.1999C48.7 21.2999 52.6 17.3999 52.6 12.6999ZM21 24.1999C21 19.4999 17.2 15.6999 12.5 15.6999C7.80002 15.6999 4.00002 19.4999 4.00002 24.1999C4.00002 28.8999 7.80002 32.6999 12.5 32.6999C17.2 32.6999 21 28.8999 21 24.1999ZM33.6 18.1L23.9 21.6C24.1 23.8 24.1 25.8 23.5 27.9L30.2 31.1999L36.5 21.5C36.5 21.2 35.4 20.2 35.1 19.9C34.7 19.6 34 18.1 33.6 18.1ZM64.5 41.3C64.9 39.9 65.5 38.5 66.5 37.4L66.4 37.1999L51.1 22C47.6 24.6 43 25.0999 39 23.1999L32.9 32.8L34.4 33.6C40.9 24.3 55.5 28.7 55.5 40.1L64.5 41.3ZM23.9 40.6999L28.4 34L22 30.6999L19.6 33.4L23.9 40.6999ZM52.6 40C52.6 35.3 48.8 31.5 44.1 31.5C39.4 31.5 35.6 35.3 35.6 40C35.6 44.7 39.4 48.5 44.1 48.5C48.7 48.5 52.6 44.7 52.6 40ZM42.6 51.5C35.4 50.4 30.8 43.3 33.1 36.3L31.2 35.3L25.9 43.6999L38.8 65.4L42.7 64.1999L42.6 51.5ZM84.2 44.3C84.2 39.6 80.4 35.8 75.7 35.8C71 35.8 67.2 39.6 67.2 44.3C67.2 49 71 52.8 75.7 52.8C80.4 52.8 84.2 49 84.2 44.3ZM64.1 44.3L55.2 43C53.9 47.5 50.1 50.7 45.5 51.4V64.3C47.7 64.7 49.8 65.5 51.5 67L51.7 66.9L66.4 51.6L66.5 51.3C65 49.5 64 46.9 64.1 44.3ZM24.1 46.6999L23.7 46.8L20 52.6999C20 52.9999 21.3 54.1 21.6 54.5C24 57.5 24.5 61.5999 23.4 65.1999L33.8 70.4L36.3 67.1999L24.1 46.6999ZM21 61.5C21 56.8 17.2 53 12.5 53C7.80002 53 4.00002 56.8 4.00002 61.5C4.00002 66.2 7.80002 70 12.5 70C17.2 70 21 66.3 21 61.5ZM52.6 75.9C52.6 71.2 48.8 67.4 44.1 67.4C39.4 67.4 35.6 71.2 35.6 75.9C35.6 80.6 39.4 84.4 44.1 84.4C48.8 84.4 52.6 80.6 52.6 75.9Z" fill="url(#paint0_linear_830_17264)"/>
<defs>
<linearGradient id="paint0_linear_830_17264" x1="44.0292" y1="-37.6501" x2="44.0292" y2="166.858" gradientUnits="userSpaceOnUse">
<stop stop-color="#CA01FF"/>
<stop offset="0.0851506" stop-color="#C30AFE"/>
<stop offset="0.225" stop-color="#AF23FA"/>
<stop offset="0.4022" stop-color="#8F4BF4"/>
<stop offset="0.6097" stop-color="#6283ED"/>
<stop offset="0.84" stop-color="#2ACAE3"/>
<stop offset="1" stop-color="#00FFDB"/>
</linearGradient>
</defs>
</svg>
