<svg width="16" height="16" viewBox="0 0 16 16" fill="none" xmlns="http://www.w3.org/2000/svg">
<rect width="16" height="16" rx="8" fill="white"/>
<path d="M12.65 7.75C12.55 5.25 10.55 3.25 8.05005 3.25C5.55005 3.25 3.55001 5.15015 3.45001 7.65015C3.45001 7.75015 3.45001 7.7501 3.45001 7.8501C3.45001 8.6501 3.65005 9.45015 4.05005 10.1501C4.05005 10.1501 4.05005 10.15 4.05005 10.25L3.25 12.6501C3.25 12.6501 3.25004 12.75 3.35004 12.75L5.85004 11.9502C5.85004 11.9502 5.85001 11.9502 5.95001 11.9502C6.65001 12.3502 7.35002 12.4502 8.15002 12.4502C10.75 12.4502 12.75 10.3501 12.75 7.8501C12.65 7.8501 12.65 7.75 12.65 7.75ZM4.85004 9.9502C4.45004 9.3502 4.25 8.6501 4.25 7.8501C4.25 7.7501 4.25 7.6502 4.25 7.4502C4.45 5.5502 6.05005 4.05005 8.05005 4.05005C10.05 4.05005 11.65 5.5502 11.85 7.4502C11.85 7.5502 11.85 7.65 11.85 7.75C11.85 9.85 10.15 11.4502 8.05005 11.4502C7.45005 11.4502 6.95001 11.35 6.45001 11.05C6.35001 10.95 6.05001 10.85 5.95001 10.75C5.95001 10.75 5.95004 10.75 5.85004 10.75L4.55005 11.1501L4.95001 9.9502C4.95001 9.9502 4.95001 9.9501 4.95001 9.8501C4.95001 10.0501 4.95004 9.9502 4.85004 9.9502ZM10.15 9.4502C10.05 9.7502 9.55004 9.95005 9.35004 10.05C9.35004 10.05 9.15005 10.05 9.05005 10.05C8.85005 10.05 8.65001 9.95 7.95001 9.75C7.45001 9.55 6.95001 9.15015 6.45001 8.65015C6.35001 8.45015 6.05005 8.05005 6.05005 8.05005C5.85005 7.75005 5.75002 7.55 5.65002 7.25C5.65002 7.15 5.55005 6.9501 5.55005 6.8501C5.55005 6.3501 5.85001 6.0502 5.95001 5.9502C6.05001 5.8502 6.45005 5.8501 6.55005 5.8501C6.65005 5.8501 6.75004 5.85005 6.85004 6.05005C6.85004 6.15005 7.15002 6.8501 7.15002 6.8501C7.15002 6.9501 7.25002 6.95005 7.15002 7.05005C7.15002 7.05005 7.15005 7.15015 7.05005 7.15015C7.05005 7.15015 6.85004 7.3502 6.85004 7.4502C6.75004 7.5502 6.75004 7.55015 6.85004 7.65015C6.95004 7.75015 7.15001 8.1502 7.45001 8.4502C7.85001 8.7502 8.35004 8.9502 8.35004 8.9502C8.45004 9.0502 8.55005 8.9502 8.55005 8.9502C8.65005 8.8502 8.85001 8.65005 8.95001 8.55005C9.05001 8.45005 9.15 8.4502 9.25 8.4502C9.35 8.4502 9.95005 8.7501 10.05 8.8501L10.25 8.9502C10.25 8.9502 10.25 9.1502 10.15 9.4502Z" fill="#333333"/>
</svg>
